<svg width="110" height="87" viewBox="0 0 110 87" fill="none" xmlns="http://www.w3.org/2000/svg">
<g filter="url(#filter0_d_1_406)">
<rect x="21.6377" y="20.75" width="66.8391" height="45.3611" rx="7.25" fill="#1F72CD" stroke="#D9D9D9" stroke-width="1.5"/>
<path fill-rule="evenodd" clip-rule="evenodd" d="M33.1393 36.5967L26.7453 50.7463H34.3998L35.3487 48.4902H37.5177L38.4667 50.7463H46.8921V49.0244L47.6428 50.7463H52.0011L52.7519 48.988V50.7463H70.2744L72.4051 48.5488L74.4001 50.7463L83.4001 50.7645L76.9859 43.711L83.4001 36.5967H74.5397L72.4657 38.7535L70.5334 36.5967H51.4712L49.8343 40.2488L48.159 36.5967H40.5205V38.26L39.6708 36.5967H33.1393ZM59.3056 38.6059H69.3679L72.4454 41.9303L75.6222 38.6059H78.6998L74.0237 43.709L78.6998 48.7532H75.4826L72.405 45.3902L69.2121 48.7532H59.3056V38.6059ZM61.7904 42.5617V40.7082V40.7064H68.069L70.8086 43.6706L67.9476 46.651H61.7904V44.6275H67.2798V42.5617H61.7904ZM34.6204 38.6059H38.3515L42.5926 48.2009V38.6059H46.6799L49.9557 45.4855L52.9747 38.6059H57.0416V48.7592H54.567L54.5468 40.8032L50.939 48.7592H48.7254L45.0974 40.8032V48.7592H40.0066L39.0415 46.483H33.8272L32.8641 48.7572H30.1365L34.6204 38.6059ZM34.7175 44.3788L36.4354 40.3239L38.1513 44.3788H34.7175Z" fill="white"/>
</g>
<defs>
<filter id="filter0_d_1_406" x="0.887695" y="0" width="108.339" height="86.8611" filterUnits="userSpaceOnUse" color-interpolation-filters="sRGB">
<feFlood flood-opacity="0" result="BackgroundImageFix"/>
<feColorMatrix in="SourceAlpha" type="matrix" values="0 0 0 0 0 0 0 0 0 0 0 0 0 0 0 0 0 0 127 0" result="hardAlpha"/>
<feOffset/>
<feGaussianBlur stdDeviation="10"/>
<feComposite in2="hardAlpha" operator="out"/>
<feColorMatrix type="matrix" values="0 0 0 0 0 0 0 0 0 0 0 0 0 0 0 0 0 0 0.07 0"/>
<feBlend mode="normal" in2="BackgroundImageFix" result="effect1_dropShadow_1_406"/>
<feBlend mode="normal" in="SourceGraphic" in2="effect1_dropShadow_1_406" result="shape"/>
</filter>
</defs>
</svg>
