<svg width="246" height="228" viewBox="0 0 246 228" fill="none" xmlns="http://www.w3.org/2000/svg">
<path d="M165.92 207.147C163.313 212.309 159.64 215.628 156.703 217.643C156.703 217.643 156.703 217.648 156.698 217.648C152.195 219.804 148.572 221.175 146.389 221.949C139.186 224.504 105.561 235.572 68.3313 219.305C51.4272 211.925 39.8056 201.537 33.1309 194.599C37.2285 197.533 42.5555 200.831 49.092 203.688C51.21 204.617 61.1481 208.855 75.2282 210.507C80.3429 211.109 86.5585 211.437 93.6283 210.948C88.5679 209.515 82.7472 207.412 76.5513 204.275C65.2852 198.572 56.9467 191.56 51.2544 185.873C60.1755 191.337 68.1338 194.806 74.0434 197.019C81.4241 199.777 88.7456 202.457 98.8565 203.324C110.365 204.311 118.456 202.415 120.391 201.932C126.933 200.296 131.5 197.897 133.109 197.009C134.817 196.074 136.753 194.993 139.078 193.124C140.574 191.919 144.508 188.553 147.895 182.809C148.947 181.022 150.25 178.488 151.351 175.252C153.128 175.288 157.374 175.636 161.457 178.695C167.164 182.965 168.423 189.421 168.779 191.384C170.116 198.832 167.174 204.664 165.92 207.147Z" fill="#FFF1EA" fill-opacity="0.5"/>
<path d="M245.549 87.0316C243.639 88.2989 241.136 90.1011 238.396 92.5058C236.386 94.2717 233.868 96.4998 231.237 99.8393C230.126 101.252 227.11 105.251 224.641 111.182C222.01 117.498 221.561 122.245 220.736 127.408C220.736 127.408 219.472 135.328 214.605 151.657C209.732 167.991 201.161 179.438 197.226 184.7C189.91 194.474 181.65 201.906 173.865 207.49C167.59 211.987 161.621 215.291 156.704 217.643C159.641 215.628 163.315 212.309 165.921 207.147C167.175 204.664 170.118 198.832 168.78 191.384C168.424 189.421 167.165 182.965 161.458 178.696C157.375 175.636 153.13 175.288 151.352 175.252C151.352 175.252 151.352 175.249 151.352 175.242C149.067 175.47 145.951 175.709 142.239 175.735C140.916 175.746 138.847 175.756 136.453 175.605C133.767 175.439 128.731 175.091 122.619 173.149C119.682 172.219 115.708 170.666 111.294 168.017C113.999 168.407 117.189 168.718 120.773 168.786C124.653 168.864 127.571 168.625 129.59 168.459C132.597 168.204 134.789 167.836 139.173 167.103C139.173 167.103 141.844 166.651 145.828 164.953C146.233 164.776 147.314 164.299 148.198 163.177C148.573 162.709 149.313 161.764 149.141 160.647C149.017 159.858 148.494 159.349 148.267 159.136C146.642 157.599 143.912 157.921 142.89 158.035C142.89 158.035 138.822 158.492 130.938 158.913C128.771 159.027 126.791 158.871 122.827 158.56C121.869 158.482 113.989 157.843 107.251 156.435C94.8193 153.833 83.3755 148.016 78.7792 145.544C84.822 146.484 90.0403 146.957 94.1578 147.206C98.0036 147.44 101.089 147.445 107.265 147.45C107.359 147.45 112.824 147.45 120.18 146.276C120.363 146.25 124.303 145.586 126.919 142.952C127.472 142.397 128.001 141.722 128.035 140.854C128.094 139.322 126.618 138.19 126.268 137.92C124.742 136.751 123.019 136.715 122.224 136.699C118.26 136.611 114.296 136.315 110.331 136.258C108.277 136.227 106.747 136.107 103.686 135.868C101.114 135.666 94.0294 135.084 85.8884 132.69C81.2476 131.324 74.8691 129.392 67.6266 124.671C63.8893 122.235 58.7055 118.256 53.5958 112.06C59.9941 114.538 65.5234 115.831 69.6261 116.558C75.0024 117.508 79.3074 117.721 84.3579 117.976C86.9943 118.106 89.5368 118.095 94.6268 118.074C94.6268 118.074 98.1271 118.064 106.15 116.506C106.94 116.355 108.939 115.94 109.956 114.309C110.119 114.055 110.41 113.572 110.425 112.938C110.43 112.465 110.292 111.312 108.194 109.811C103.079 106.165 97.8753 105.755 97.8753 105.755C91.1314 105.22 84.6196 102.914 77.9892 101.501C72.8005 100.395 64.5953 98.6448 55.8717 93.5342C52.6973 91.6748 43.8404 86.0812 36.1733 75.1069C30.9451 67.6227 28.2297 60.4398 26.7832 55.5992C30.4464 58.5649 35.5562 62.3303 42.0236 66.0126C44.6155 67.4877 55.2151 73.3825 70.648 77.4492C78.6311 79.5579 84.7776 80.3473 92.2472 81.3133C97.3026 81.9626 104.204 82.8351 113.279 83.074C120.21 83.2558 135.964 83.6713 142.402 83.5363C143.192 83.5207 145.522 83.4635 148.523 84.1231C148.642 84.1491 150.454 84.5542 151.777 85.0788C155.726 86.6369 158.076 90.4127 159.306 92.215C163.033 97.6839 164.638 101.652 167.062 106.586C168.656 109.827 172.492 117.316 178.357 125.309C178.357 125.309 182.179 130.519 188.439 135.427C189.831 136.517 191.988 138.091 195.034 138.507C196.205 138.662 198.164 138.901 200.194 137.821C202.149 136.777 203.082 135.094 203.817 133.765C205.758 130.254 205.619 126.847 205.585 126.187C205.506 124.78 205.313 121.237 202.795 118.708C201.448 117.353 199.878 116.74 199.404 116.558C198.253 116.122 197.355 116.033 196.106 115.919C191.006 115.462 190.236 115.441 188.947 115.285C186.898 115.036 185.012 114.808 182.909 113.966C181.389 113.359 178.999 112.122 176.541 109.468C177.982 109.889 180.11 110.305 182.677 110.107C185.99 109.848 188.335 108.684 188.903 108.393C190.858 107.391 192.25 106.165 193.129 105.267C191.598 105.308 189.155 105.168 186.395 104.093C184.218 103.241 182.593 102.104 181.517 101.21C182.761 101.548 184.716 101.943 187.091 101.797C188.414 101.709 190.621 101.413 197.034 98.3747C201.689 96.1674 201.541 95.8454 204.839 94.4638C207.999 93.1394 210.24 92.2046 213.296 91.9189C215.251 91.7423 218.238 91.7631 221.847 92.994C225.387 90.7711 228.546 89.4259 230.862 88.5949C232.797 87.9042 234.836 87.1874 237.645 86.8395C240.918 86.424 243.668 86.7044 245.544 87.0316H245.549Z" fill="#FFF1EA" fill-opacity="0.5"/>
<path d="M200.105 60.6372C195.79 52.831 185.625 36.8604 166.464 24.8577C145.635 11.8059 125.986 10.8502 119.44 10.7775C85.7402 10.3984 63.0549 29.6463 58.108 34.0454C48.6094 42.4955 42.0037 51.8027 37.4321 60.2009C34.2823 58.1442 31.2214 55.9161 28.2938 53.5426L26.9707 52.4727C39.5451 25.6679 63.3363 12.7875 72.2327 8.6273C101.104 -4.87637 134.231 -1.93673 159.587 13.3224C184.835 28.5089 196.214 51.6365 200.105 60.6372Z" fill="#FFF1EA" fill-opacity="0.5"/>
<path d="M125.902 197.019C116.863 198.115 98.448 199.06 77.5302 190.418C66.5849 185.899 59.0166 180.409 56.5975 178.586C53.7637 176.447 44.0576 168.864 35.0082 155.729C18.8891 132.326 16.4551 108.139 15.9565 101.667C15.2752 92.7966 13.9521 72.484 24.2802 50.2289C30.5057 36.8135 38.6122 27.7557 44.0724 22.5152C36.0548 28.3997 20.9428 41.2437 10.6197 63.4313C8.48196 68.0278 -2.05843 91.519 1.00248 123.118C2.05898 134.05 4.16213 153.49 17.5906 172.686C31.0241 191.888 48.0467 199.792 52.3863 201.688C62.8921 206.274 72.3266 207.63 78.6459 208.03C71.6206 205.412 66.2739 202.135 62.6156 199.522C57.1652 195.632 53.5267 191.841 51.3643 189.561C47.4148 185.401 44.4279 181.443 42.2606 178.254C49.592 182.627 56.1532 185.988 61.4949 188.517C72.3562 193.659 80.4133 197.403 91.7486 199.522C103.039 201.636 110.346 200.779 112.415 200.504C118.097 199.751 122.703 198.265 125.893 197.019H125.902Z" fill="#FFF1EA" fill-opacity="0.5"/>
</svg>
