<svg width="36" height="30" viewBox="0 0 36 30" fill="none" xmlns="http://www.w3.org/2000/svg">
<path d="M21.1297 29.0745C28.7398 29.1113 35.6859 22.8111 35.6859 15.1471C35.6859 6.7667 28.7398 0.973314 21.1297 0.976442H14.5801C6.87929 0.973314 0.540039 6.76826 0.540039 15.1471C0.540039 22.8127 6.87929 29.1113 14.5801 29.0745H21.1297Z" fill="#0079BE"/>
<path d="M14.6114 2.1377C7.57374 2.14004 1.87185 7.89588 1.86951 15C1.87185 22.1033 7.57374 27.8591 14.6114 27.8615C21.6497 27.8591 27.354 22.1033 27.3548 15C27.354 7.89588 21.6505 2.14004 14.6114 2.1377ZM6.53518 15C6.5337 13.3574 7.02776 11.7527 7.9528 10.3954C8.87784 9.03812 10.1908 7.99148 11.7201 7.39225V22.6069C10.1907 22.0081 8.87756 20.9617 7.95248 19.6045C7.02739 18.2473 6.53343 16.6425 6.53518 15V15ZM17.5018 22.61V7.39147C19.0322 7.98984 20.3464 9.0364 21.2721 10.3941C22.1978 11.7519 22.692 13.3575 22.6899 15.0008C22.6916 16.644 22.1973 18.2494 21.2717 19.6071C20.346 20.9648 19.0321 22.0114 17.5018 22.61V22.61Z" fill="white"/>
<path d="M21.1297 29.0745C28.7398 29.1113 35.6859 22.8111 35.6859 15.1471C35.6859 6.7667 28.7398 0.973314 21.1297 0.976442H14.5801C6.87929 0.973314 0.540039 6.76826 0.540039 15.1471C0.540039 22.8127 6.87929 29.1113 14.5801 29.0745H21.1297Z" fill="#0079BE"/>
<path d="M14.6114 2.1377C7.57374 2.14004 1.87185 7.89588 1.86951 15C1.87185 22.1033 7.57374 27.8591 14.6114 27.8615C21.6497 27.8591 27.354 22.1033 27.3548 15C27.354 7.89588 21.6505 2.14004 14.6114 2.1377ZM6.53518 15C6.5337 13.3574 7.02776 11.7527 7.9528 10.3954C8.87784 9.03812 10.1908 7.99148 11.7201 7.39225V22.6069C10.1907 22.0081 8.87756 20.9617 7.95248 19.6045C7.02739 18.2473 6.53343 16.6425 6.53518 15V15ZM17.5018 22.61V7.39147C19.0322 7.98984 20.3464 9.0364 21.2721 10.3941C22.1978 11.7519 22.692 13.3575 22.6899 15.0008C22.6916 16.644 22.1973 18.2494 21.2717 19.6071C20.346 20.9648 19.0321 22.0114 17.5018 22.61V22.61Z" fill="white"/>
</svg>
