<svg width="62" height="28" viewBox="0 0 62 28" fill="none" xmlns="http://www.w3.org/2000/svg">
<path d="M22.5428 27.8849L61.1056 16.6577C61.1056 22.8583 56.0791 27.8849 49.8785 27.8849H22.5428Z" fill="#FD6020"/>
<path fill-rule="evenodd" clip-rule="evenodd" d="M53.7862 0.76565C55.9077 0.76565 57.0746 1.70979 57.0746 3.49316C57.1807 4.85692 56.226 6.01087 54.953 6.22068L57.8171 10.1021H55.5895L53.1497 6.32558H52.9376V10.1021H51.1343V0.76565H53.7862ZM52.9376 5.06667H53.468C54.6349 5.06667 55.1652 4.54215 55.1652 3.59801C55.1652 2.75878 54.6349 2.23425 53.468 2.23425H52.9376V5.06667ZM44.8756 10.1021H49.9673V8.52857H46.6789V6.01087H49.8612V4.4373H46.6789V2.33922H49.9673V0.76565H44.8756V10.1021V10.1021ZM39.5718 7.05991L37.132 0.76565H35.2226L39.1475 10.312H40.1022L44.027 0.76565H42.1176L39.5718 7.05991V7.05991ZM18.038 5.48646C18.038 8.10907 20.1596 10.3121 22.8115 10.3121C23.6601 10.3121 24.4027 10.1023 25.1452 9.78754V7.68946C24.6148 8.31888 23.8723 8.7385 23.0236 8.7385C21.3264 8.7385 19.9474 7.47965 19.9474 5.80118V5.59137C19.8413 3.9129 21.2203 2.44424 22.9176 2.33933C23.7662 2.33933 24.6148 2.75895 25.1452 3.38838V1.29029C24.5087 0.870671 23.6601 0.765766 22.9176 0.765766C20.1596 0.555958 18.038 2.75895 18.038 5.48646V5.48646ZM14.7496 4.33244C13.6889 3.91282 13.3706 3.70301 13.3706 3.17849C13.4767 2.54907 14.0071 2.02454 14.6436 2.12945C15.1739 2.12945 15.7043 2.44416 16.1286 2.86378L17.0833 1.60493C16.3408 0.975499 15.3861 0.555882 14.4314 0.555882C12.9463 0.450977 11.6734 1.60493 11.5673 3.07359V3.17849C11.5673 4.43734 12.0977 5.17167 13.7949 5.6962C14.2192 5.8011 14.6436 6.01091 15.0679 6.22072C15.3861 6.43053 15.5983 6.74524 15.5983 7.16486C15.5983 7.89919 14.9618 8.52862 14.3253 8.52862H14.2192C13.3706 8.52862 12.6281 8.00409 12.3098 7.26976L11.143 8.42371C11.7795 9.57766 13.0524 10.2071 14.3253 10.2071C16.0226 10.312 17.4016 9.05314 17.5076 7.37467V7.05995C17.4016 5.8011 16.8712 5.17167 14.7496 4.33244V4.33244ZM8.59712 10.1021H10.4004V0.76565H8.59712V10.1021V10.1021ZM0.21698 0.76565H2.86892H3.39931C5.94517 0.870555 7.96065 2.96864 7.85457 5.48635C7.85457 6.8501 7.2181 8.10896 6.15733 9.0531C5.20263 9.78743 4.03577 10.207 2.86892 10.1021H0.21698V0.76565ZM2.55073 8.52866C3.39935 8.63356 4.35405 8.31885 4.99051 7.79433C5.62698 7.1649 5.94521 6.32567 5.94521 5.38153C5.94521 4.54229 5.62698 3.70306 4.99051 3.07363C4.35405 2.54911 3.39935 2.23439 2.55073 2.3393H2.02034V8.52866H2.55073Z" fill="black"/>
<path fill-rule="evenodd" clip-rule="evenodd" d="M30.5552 0.549255C27.9032 0.549255 25.6756 2.64734 25.6756 5.37486C25.6756 7.99747 27.7972 10.2005 30.5552 10.3054C33.3132 10.4103 35.4347 8.20728 35.5408 5.47976C35.4347 2.75225 33.3132 0.549255 30.5552 0.549255V0.549255Z" fill="#FD6020"/>
</svg>
