<svg width="329" height="422" viewBox="0 0 329 422" fill="none" xmlns="http://www.w3.org/2000/svg">
<path d="M189.301 383.125C184.728 392.66 178.284 398.789 173.131 402.511C173.131 402.511 173.131 402.521 173.122 402.521C165.223 406.501 158.865 409.034 155.037 410.463C142.4 415.182 83.4081 435.623 18.0931 405.58C-11.5633 391.95 -31.952 372.766 -43.6621 359.951C-36.4732 365.371 -27.1277 371.462 -15.6601 376.737C-11.9444 378.454 5.49087 386.281 30.1929 389.332C39.1661 390.444 50.0707 391.048 62.4737 390.147C53.5958 387.499 43.3841 383.615 32.5142 377.821C12.749 367.289 -1.87991 354.34 -11.8664 343.837C3.78459 353.927 17.7466 360.335 28.1142 364.421C41.0629 369.514 53.9076 374.464 71.646 376.066C91.8355 377.888 106.031 374.387 109.427 373.495C120.903 370.474 128.915 366.042 131.738 364.402C134.735 362.675 138.13 360.68 142.21 357.227C144.834 355.002 151.737 348.786 157.679 338.177C159.524 334.878 161.81 330.197 163.742 324.221C166.86 324.288 174.309 324.931 181.471 330.58C191.484 338.465 193.693 350.388 194.316 354.014C196.663 367.769 191.501 378.541 189.301 383.125Z" fill="#FFF1EA" fill-opacity="0.5"/>
<path d="M328.999 161.291C325.648 163.632 321.256 166.96 316.449 171.401C312.924 174.663 308.507 178.778 303.89 184.945C301.941 187.554 296.649 194.94 292.319 205.894C287.702 217.558 286.914 226.325 285.468 235.86C285.468 235.86 283.25 250.487 274.71 280.645C266.162 310.812 251.126 331.952 244.222 341.669C231.386 359.721 216.896 373.447 203.237 383.759C192.229 392.065 181.757 398.166 173.13 402.511C178.284 398.789 184.728 392.66 189.301 383.126C191.501 378.541 196.663 367.769 194.316 354.014C193.692 350.388 191.484 338.465 181.471 330.581C174.308 324.931 166.86 324.288 163.742 324.221C163.742 324.221 163.742 324.215 163.742 324.202C159.731 324.624 154.266 325.065 147.753 325.113C145.432 325.132 141.802 325.152 137.602 324.873C132.89 324.566 124.055 323.924 113.333 320.336C108.179 318.619 101.207 315.751 93.4636 310.86C98.21 311.579 103.805 312.154 110.093 312.279C116.901 312.423 122.02 311.982 125.562 311.675C130.837 311.205 134.683 310.524 142.374 309.171C142.374 309.171 147.06 308.337 154.05 305.2C154.76 304.874 156.657 303.992 158.207 301.92C158.865 301.056 160.164 299.311 159.861 297.248C159.645 295.79 158.727 294.85 158.328 294.457C155.479 291.618 150.689 292.213 148.896 292.424C148.896 292.424 141.759 293.268 127.927 294.045C124.125 294.256 120.652 293.968 113.696 293.392C112.016 293.249 98.1927 292.069 86.37 289.469C64.5608 284.664 44.4839 273.921 36.4202 269.355C47.0217 271.091 56.1767 271.964 63.4002 272.424C70.1474 272.856 75.5607 272.866 86.396 272.875C86.5606 272.875 96.1486 272.875 109.054 270.707C109.374 270.659 116.286 269.432 120.877 264.568C121.847 263.542 122.774 262.295 122.834 260.693C122.938 257.864 120.348 255.773 119.733 255.274C117.057 253.116 114.034 253.048 112.64 253.02C105.685 252.857 98.7297 252.31 91.7747 252.204C88.1716 252.147 85.4866 251.926 80.1165 251.485C75.604 251.111 63.175 250.037 48.8925 245.615C40.7509 243.092 29.5604 239.524 16.8543 230.805C10.2977 226.306 1.20329 218.958 -7.76117 207.515C3.46389 212.091 13.1646 214.479 20.3621 215.822C29.7943 217.577 37.347 217.97 46.2075 218.44C50.8326 218.68 55.2932 218.661 64.223 218.623C64.223 218.623 70.3639 218.604 84.4385 215.726C85.8244 215.448 89.3322 214.68 91.1164 211.669C91.4022 211.199 91.9133 210.306 91.9392 209.136C91.9479 208.263 91.7054 206.134 88.0243 203.362C79.0512 196.628 69.9222 195.871 69.9222 195.871C58.0908 194.883 46.6665 190.624 35.0344 188.015C25.9313 185.972 11.5362 182.739 -3.76831 173.301C-9.33753 169.867 -24.8759 159.536 -38.327 139.268C-47.4993 125.446 -52.263 112.18 -54.8008 103.24C-48.3741 108.718 -39.4096 115.672 -28.0633 122.472C-23.5161 125.197 -4.92026 136.084 22.155 143.594C36.1604 147.488 46.9437 148.946 60.0483 150.731C68.9175 151.93 81.026 153.541 96.9455 153.982C109.106 154.318 136.744 155.085 148.039 154.836C149.424 154.807 153.513 154.702 158.779 155.92C158.986 155.968 162.165 156.716 164.486 157.685C171.415 160.562 175.538 167.536 177.695 170.864C184.234 180.965 187.049 188.293 191.302 197.405C194.099 203.391 200.829 217.222 211.119 231.984C211.119 231.984 217.823 241.605 228.805 250.67C231.248 252.684 235.033 255.59 240.377 256.358C242.43 256.645 245.868 257.087 249.428 255.092C252.858 253.164 254.495 250.056 255.785 247.6C259.189 241.116 258.947 234.824 258.886 233.605C258.748 231.006 258.41 224.464 253.992 219.793C251.628 217.289 248.874 216.158 248.042 215.822C246.024 215.016 244.448 214.853 242.256 214.642C233.309 213.798 231.958 213.76 229.697 213.472C226.103 213.011 222.794 212.589 219.105 211.035C216.437 209.913 212.245 207.63 207.932 202.729C210.461 203.506 214.194 204.273 218.698 203.909C224.509 203.429 228.623 201.28 229.62 200.743C233.049 198.892 235.492 196.628 237.034 194.969C234.349 195.046 230.061 194.787 225.22 192.801C221.4 191.228 218.55 189.127 216.662 187.477C218.845 188.101 222.275 188.83 226.441 188.561C228.762 188.398 232.634 187.852 243.885 182.24C252.052 178.164 251.792 177.569 257.578 175.017C263.121 172.572 267.054 170.845 272.415 170.317C275.845 169.991 281.085 170.03 287.417 172.303C293.627 168.198 299.17 165.713 303.232 164.179C306.627 162.903 310.204 161.579 315.133 160.936C320.875 160.169 325.699 160.687 328.991 161.291H328.999Z" fill="#FFF1EA" fill-opacity="0.5"/>
<path d="M249.271 112.545C241.701 98.128 223.867 68.6326 190.253 46.4655C153.711 22.3607 119.239 20.5958 107.754 20.4615C48.6317 19.7613 8.83291 55.3093 0.154266 63.4337C-16.5101 79.0399 -28.0989 96.2288 -36.1193 111.739C-41.6452 107.941 -47.0153 103.826 -52.1514 99.4421L-54.4727 97.4662C-32.4123 47.9618 9.3266 24.1736 24.9343 16.4904C75.5857 -8.44879 133.703 -3.01971 178.188 25.1616C222.482 53.2087 242.446 95.9219 249.271 112.545Z" fill="#FFF1EA" fill-opacity="0.5"/>
<path d="M119.093 364.421C103.234 366.445 70.9277 368.191 34.2297 352.23C15.0276 343.885 1.74977 333.746 -2.49428 330.379C-7.46587 326.427 -24.494 312.423 -40.3702 288.165C-68.6494 244.943 -72.9194 200.273 -73.7942 188.322C-74.9895 171.938 -77.3107 134.424 -59.1913 93.3224C-48.2693 68.5462 -34.0475 51.8177 -24.468 42.1394C-38.534 53.0072 -65.0463 76.7282 -83.1571 117.705C-86.9075 126.194 -105.399 169.579 -100.029 227.937C-98.1758 248.128 -94.4861 284.031 -70.9273 319.483C-47.3599 354.944 -17.4957 369.543 -9.88239 373.045C8.5489 381.514 25.1007 384.018 36.1872 384.756C23.8621 379.922 14.4819 373.869 8.06387 369.045C-1.49823 361.86 -7.88162 354.858 -11.6753 350.647C-18.6043 342.964 -23.8444 335.655 -27.6467 329.765C-14.7847 337.842 -3.2738 344.048 6.09775 348.719C25.1526 358.215 39.2879 365.131 59.1743 369.045C78.9827 372.949 91.8015 371.366 95.4306 370.858C105.4 369.467 113.481 366.723 119.076 364.421H119.093Z" fill="#FFF1EA" fill-opacity="0.5"/>
</svg>
