<svg width="195" height="56" viewBox="0 0 195 56" fill="none" xmlns="http://www.w3.org/2000/svg">
<path d="M41.9984 50.4729C41.3368 51.7184 40.4045 52.5191 39.6589 53.0053C39.6589 53.0053 39.6589 53.0065 39.6577 53.0065C38.5149 53.5266 37.5952 53.8574 37.0413 54.0441C35.2131 54.6606 26.6785 57.3308 17.2292 53.4063C12.9388 51.6257 9.98905 49.1196 8.29492 47.4455C9.33496 48.1534 10.687 48.9491 12.3461 49.6383C12.8836 49.8626 15.406 50.8851 18.9797 51.2836C20.2779 51.4289 21.8555 51.5079 23.6499 51.3901C22.3655 51.0443 20.8881 50.5368 19.3156 49.7799C16.4561 48.4041 14.3397 46.7124 12.8949 45.3403C15.1592 46.6586 17.1791 47.4956 18.679 48.0294C20.5523 48.6948 22.4106 49.3413 24.9769 49.5506C27.8977 49.7887 29.9515 49.3313 30.4427 49.2148C32.103 48.8201 33.2621 48.2412 33.6706 48.0269C34.1041 47.8013 34.5953 47.5407 35.1855 47.0896C35.5652 46.7989 36.5639 45.9869 37.4235 44.601C37.6904 44.17 38.0212 43.5585 38.3006 42.7778C38.7517 42.7866 39.8294 42.8706 40.8656 43.6086C42.3142 44.6386 42.6337 46.1962 42.7239 46.6698C43.0635 48.4667 42.3167 49.8739 41.9984 50.4729Z" fill="white"/>
<path d="M62.2091 21.4934C61.7241 21.7992 61.0888 22.234 60.3934 22.8141C59.8834 23.2402 59.2443 23.7777 58.5764 24.5835C58.2945 24.9243 57.5289 25.8891 56.9024 27.3201C56.2345 28.8438 56.1205 29.9891 55.9112 31.2347C55.9112 31.2347 55.5904 33.1456 54.3549 37.0852C53.1181 41.0261 50.9428 43.7878 49.9441 45.0571C48.0871 47.4154 45.9907 49.2085 44.0147 50.5556C42.422 51.6407 40.9071 52.4377 39.659 53.0053C40.4046 52.5191 41.3369 51.7184 41.9985 50.4729C42.3168 49.8739 43.0636 48.4667 42.724 46.6698C42.6338 46.1962 42.3143 44.6386 40.8657 43.6086C39.8295 42.8706 38.7518 42.7866 38.3007 42.7778C38.3007 42.7778 38.3007 42.777 38.3007 42.7753C37.7206 42.8305 36.9299 42.8881 35.9876 42.8944C35.6518 42.8969 35.1267 42.8994 34.519 42.863C33.8373 42.8229 32.5592 42.739 31.0079 42.2704C30.2624 42.0461 29.2537 41.6714 28.1334 41.0323C28.8201 41.1263 29.6296 41.2015 30.5393 41.2178C31.5242 41.2366 32.2648 41.1789 32.7773 41.1388C33.5404 41.0774 34.0967 40.9885 35.2094 40.8118C35.2094 40.8118 35.8873 40.7028 36.8986 40.293C37.0013 40.2504 37.2757 40.1351 37.5 39.8645C37.5953 39.7517 37.7832 39.5236 37.7394 39.2542C37.708 39.0638 37.5752 38.941 37.5176 38.8896C37.1053 38.5187 36.4124 38.5964 36.153 38.624C36.153 38.624 35.1205 38.7342 33.1193 38.8357C32.5692 38.8633 32.0668 38.8257 31.0606 38.7505C30.8175 38.7317 28.8176 38.5776 27.1072 38.238C23.952 37.6102 21.0474 36.2068 19.8808 35.6104C21.4145 35.8372 22.739 35.9512 23.7841 36.0113C24.7602 36.0677 25.5434 36.069 27.1109 36.0702C27.1347 36.0702 28.5219 36.0702 30.3889 35.787C30.4353 35.7808 31.4352 35.6204 32.0993 34.9851C32.2397 34.851 32.3738 34.6881 32.3825 34.4788C32.3976 34.1092 32.0229 33.836 31.9339 33.7709C31.5468 33.4889 31.1094 33.4802 30.9077 33.4764C29.9015 33.4551 28.8953 33.3837 27.8891 33.3699C27.3678 33.3624 26.9794 33.3335 26.2025 33.2759C25.5496 33.227 23.7515 33.0867 21.6852 32.509C20.5073 32.1795 18.8884 31.7133 17.0501 30.5743C16.1016 29.9866 14.7859 29.0268 13.4889 27.5319C15.1129 28.1296 16.5163 28.4416 17.5576 28.617C18.9222 28.8464 20.0149 28.8977 21.2967 28.9591C21.9659 28.9905 22.6112 28.9879 23.9031 28.9829C23.9031 28.9829 24.7915 28.9804 26.8277 28.6045C27.0282 28.5682 27.5357 28.4679 27.7938 28.0745C27.8352 28.0131 27.9091 27.8965 27.9129 27.7437C27.9141 27.6296 27.8791 27.3515 27.3465 26.9893C26.0483 26.1097 24.7276 26.0107 24.7276 26.0107C23.0159 25.8816 21.3632 25.3253 19.6803 24.9844C18.3633 24.7175 16.2808 24.2952 14.0666 23.0622C13.2609 22.6136 11.0129 21.2641 9.06691 18.6164C7.73992 16.8107 7.05074 15.0778 6.68359 13.9099C7.61336 14.6254 8.91028 15.5339 10.5518 16.4223C11.2096 16.7782 13.8999 18.2004 17.817 19.1815C19.8432 19.6903 21.4033 19.8807 23.2991 20.1138C24.5823 20.2704 26.334 20.4809 28.6372 20.5386C30.3964 20.5824 34.3949 20.6827 36.0289 20.6501C36.2294 20.6463 36.8209 20.6326 37.5827 20.7917C37.6128 20.798 38.0727 20.8957 38.4085 21.0223C39.4109 21.3982 40.0074 22.3092 40.3194 22.744C41.2655 24.0634 41.6727 25.0208 42.288 26.2112C42.6927 26.9931 43.6663 28.8 45.1549 30.7284C45.1549 30.7284 46.1248 31.9853 47.7137 33.1694C48.0671 33.4325 48.6146 33.8122 49.3878 33.9125C49.6848 33.9501 50.1822 34.0077 50.6972 33.7471C51.1934 33.4952 51.4303 33.0892 51.617 32.7684C52.1094 31.9214 52.0743 31.0993 52.0656 30.9402C52.0455 30.6006 51.9966 29.746 51.3576 29.1358C51.0155 28.8088 50.617 28.6609 50.4967 28.617C50.2048 28.5118 49.9767 28.4905 49.6597 28.4629C48.3653 28.3526 48.1698 28.3476 47.8428 28.31C47.3227 28.2499 46.8441 28.1948 46.3103 27.9918C45.9243 27.8452 45.3178 27.5469 44.6938 26.9066C45.0597 27.0081 45.5998 27.1084 46.2514 27.0607C47.0922 26.9981 47.6874 26.7174 47.8315 26.6472C48.3277 26.4054 48.6811 26.1097 48.9041 25.8929C48.5156 25.9029 47.8954 25.8691 47.1949 25.6097C46.6423 25.4042 46.2301 25.1298 45.9569 24.9143C46.2727 24.9957 46.7689 25.0909 47.3716 25.0559C47.7074 25.0346 48.2675 24.9631 49.8953 24.2301C51.0769 23.6975 51.0393 23.6199 51.8763 23.2865C52.6783 22.967 53.2472 22.7415 54.0228 22.6725C54.519 22.6299 55.2771 22.6349 56.1931 22.9319C57.0916 22.3956 57.8935 22.0711 58.4812 21.8706C58.9724 21.7039 59.4899 21.531 60.2029 21.447C61.0337 21.3468 61.7316 21.4145 62.2078 21.4934H62.2091Z" fill="white"/>
<path d="M50.6759 15.1254C49.5807 13.2421 47.0007 9.38892 42.1376 6.49311C36.8509 3.34418 31.8637 3.11361 30.2022 3.09607C21.6488 3.0046 15.891 7.64843 14.6355 8.70977C12.2246 10.7485 10.548 12.994 9.38765 15.0202C8.5882 14.524 7.8113 13.9864 7.06824 13.4137L6.73242 13.1556C9.92396 6.68859 15.9624 3.581 18.2204 2.57731C25.5483 -0.680643 33.9563 0.0285873 40.392 3.71007C46.8002 7.37401 49.6885 12.9539 50.6759 15.1254Z" fill="white"/>
<path d="M31.8415 48.0294C29.5472 48.2938 24.8733 48.5219 19.5641 46.4368C16.786 45.3466 14.8651 44.0222 14.2511 43.5823C13.5318 43.0661 11.0683 41.2366 8.77148 38.0676C4.68025 32.4214 4.06249 26.5859 3.93593 25.0246C3.76301 22.8843 3.42719 17.9836 6.04859 12.6143C7.62869 9.37764 9.68621 7.19231 11.0721 5.92798C9.03713 7.34769 5.20152 10.4465 2.58138 15.7996C2.0388 16.9085 -0.636472 22.5761 0.140423 30.1997C0.408578 32.8374 0.94238 37.5276 4.3507 42.1589C7.76026 46.7914 12.0808 48.6986 13.1822 49.1559C15.8487 50.2624 18.2433 50.5894 19.8472 50.6859C18.0641 50.0544 16.7071 49.2637 15.7786 48.6334C14.3952 47.6949 13.4717 46.7801 12.9229 46.2301C11.9204 45.2264 11.1623 44.2715 10.6122 43.5021C12.473 44.5572 14.1383 45.368 15.4941 45.9782C18.2509 47.2187 20.2958 48.1222 23.1729 48.6334C26.0386 49.1434 27.8931 48.9367 28.4182 48.8702C29.8604 48.6885 31.0295 48.3302 31.839 48.0294H31.8415Z" fill="white"/>
<path d="M77.269 35V34.12C77.709 34.1067 78.0223 34.02 78.209 33.86C78.409 33.6867 78.5357 33.4333 78.589 33.1C78.6423 32.7667 78.669 32.3467 78.669 31.84V23.68C78.669 23.32 78.6757 23 78.689 22.72C78.7023 22.4267 78.7157 22.1933 78.729 22.02C78.5023 22.0333 78.2557 22.0467 77.989 22.06C77.7223 22.0733 77.4823 22.0867 77.269 22.1V21C78.069 20.9867 78.869 20.98 79.669 20.98C80.469 20.9667 81.289 20.96 82.129 20.96C83.7023 20.96 84.9357 21.2467 85.829 21.82C86.7223 22.38 87.149 23.26 87.109 24.46C87.0957 24.8733 86.969 25.2867 86.729 25.7C86.5023 26.1 86.1557 26.46 85.689 26.78C85.2223 27.0867 84.6423 27.3133 83.949 27.46V27.5C85.3757 27.5667 86.4423 27.94 87.149 28.62C87.8557 29.2867 88.209 30.1 88.209 31.06C88.209 31.8867 87.9957 32.6 87.569 33.2C87.1557 33.7867 86.589 34.2333 85.869 34.54C85.1623 34.8467 84.349 35 83.429 35H77.269ZM80.729 34C80.9557 34 81.2023 34.0067 81.469 34.02C81.7357 34.02 81.989 34.02 82.229 34.02C82.4823 34.02 82.669 34.02 82.789 34.02C83.749 34.0067 84.5023 33.7467 85.049 33.24C85.5957 32.7333 85.869 32.0267 85.869 31.12C85.869 30.3733 85.7157 29.7933 85.409 29.38C85.1157 28.9533 84.729 28.6533 84.249 28.48C83.769 28.3067 83.2557 28.22 82.709 28.22C82.3357 28.22 81.9957 28.2267 81.689 28.24C81.3957 28.24 81.0957 28.2467 80.789 28.26V32.36C80.789 32.72 80.7823 33.04 80.769 33.32C80.769 33.6 80.7557 33.8267 80.729 34ZM80.789 27.28L82.109 27.24C82.8023 27.2267 83.349 27.08 83.749 26.8C84.1623 26.52 84.4557 26.16 84.629 25.72C84.8023 25.28 84.8823 24.82 84.869 24.34C84.869 23.6733 84.729 23.1667 84.449 22.82C84.169 22.4733 83.8223 22.2333 83.409 22.1C82.9957 21.9667 82.589 21.9 82.189 21.9C81.8157 21.9 81.529 21.9533 81.329 22.06C81.129 22.1667 80.989 22.3533 80.909 22.62C80.829 22.8733 80.789 23.2533 80.789 23.76V27.28ZM95.8485 34.16C96.2485 34.16 96.5285 34.0667 96.6885 33.88C96.8618 33.6933 96.9618 33.4333 96.9885 33.1C97.0285 32.7667 97.0485 32.38 97.0485 31.94L97.0285 29.14C97.0285 28.0867 96.8618 27.3 96.5285 26.78C96.2085 26.2467 95.6885 25.9867 94.9685 26C94.5285 26.0133 94.0952 26.12 93.6685 26.32C93.2552 26.52 92.9085 26.7733 92.6285 27.08V32.52C92.6285 32.76 92.6218 33.0067 92.6085 33.26C92.5952 33.5 92.5752 33.7467 92.5485 34C92.7618 33.9867 92.9752 33.98 93.1885 33.98C93.4152 33.9667 93.6218 33.9533 93.8085 33.94V35H89.3485V34.16C89.7485 34.16 90.0285 34.0667 90.1885 33.88C90.3485 33.6933 90.4485 33.4333 90.4885 33.1C90.5285 32.7667 90.5485 32.38 90.5485 31.94V22.9C90.5485 22.6733 90.5485 22.4467 90.5485 22.22C90.5618 21.98 90.5818 21.7267 90.6085 21.46C90.3818 21.4733 90.1418 21.4867 89.8885 21.5C89.6352 21.5 89.4018 21.5067 89.1885 21.52V20.46C89.7885 20.46 90.2685 20.4333 90.6285 20.38C90.9885 20.3133 91.2618 20.24 91.4485 20.16C91.6485 20.08 91.7952 19.9933 91.8885 19.9H92.6285V25.94C92.9218 25.7 93.2485 25.4867 93.6085 25.3C93.9685 25.1133 94.3352 24.9667 94.7085 24.86C95.0952 24.74 95.4552 24.68 95.7885 24.68C96.9752 24.68 97.8218 25.04 98.3285 25.76C98.8485 26.48 99.1152 27.6067 99.1285 29.14V32.52C99.1285 32.76 99.1218 33.0067 99.1085 33.26C99.1085 33.5 99.0885 33.7467 99.0485 34C99.2618 33.9867 99.4818 33.98 99.7085 33.98C99.9352 33.9667 100.142 33.9533 100.329 33.94V35H95.8485V34.16ZM106.657 35.32C105.711 35.32 104.857 35.1067 104.097 34.68C103.337 34.2533 102.731 33.66 102.277 32.9C101.837 32.1267 101.617 31.24 101.617 30.24C101.617 29.16 101.837 28.2067 102.277 27.38C102.731 26.54 103.337 25.88 104.097 25.4C104.857 24.92 105.704 24.68 106.637 24.68C107.584 24.68 108.437 24.9 109.197 25.34C109.957 25.7667 110.557 26.3667 110.997 27.14C111.451 27.9 111.677 28.78 111.677 29.78C111.677 30.8333 111.457 31.78 111.017 32.62C110.577 33.46 109.977 34.12 109.217 34.6C108.471 35.08 107.617 35.32 106.657 35.32ZM106.797 34.32C107.437 34.3067 107.937 34.1067 108.297 33.72C108.671 33.3333 108.937 32.84 109.097 32.24C109.257 31.6267 109.337 30.9933 109.337 30.34C109.337 29.7667 109.284 29.2067 109.177 28.66C109.084 28.1 108.931 27.5933 108.717 27.14C108.504 26.6867 108.224 26.3267 107.877 26.06C107.531 25.78 107.111 25.6467 106.617 25.66C105.991 25.66 105.477 25.8533 105.077 26.24C104.691 26.6267 104.404 27.1267 104.217 27.74C104.044 28.34 103.957 28.98 103.957 29.66C103.957 30.4467 104.057 31.1933 104.257 31.9C104.457 32.6067 104.764 33.1867 105.177 33.64C105.604 34.0933 106.144 34.32 106.797 34.32ZM113.04 34.16C113.44 34.16 113.72 34.0667 113.88 33.88C114.04 33.6933 114.133 33.4333 114.16 33.1C114.2 32.7667 114.22 32.38 114.22 31.94V22.9C114.22 22.6733 114.22 22.4467 114.22 22.22C114.233 21.98 114.253 21.7267 114.28 21.46C114.053 21.4733 113.813 21.4867 113.56 21.5C113.307 21.5 113.08 21.5067 112.88 21.52V20.46C113.48 20.46 113.953 20.4333 114.3 20.38C114.66 20.3133 114.933 20.24 115.12 20.16C115.32 20.08 115.467 19.9933 115.56 19.9H116.32V32.52C116.32 32.76 116.313 33.0067 116.3 33.26C116.287 33.5 116.267 33.7467 116.24 34C116.453 33.9867 116.667 33.98 116.88 33.98C117.107 33.9667 117.313 33.9533 117.5 33.94V35H113.04V34.16ZM123.783 35.32C122.85 35.32 122.01 35.1067 121.263 34.68C120.53 34.24 119.95 33.6267 119.523 32.84C119.096 32.04 118.883 31.1 118.883 30.02C118.883 29.0867 119.09 28.2133 119.503 27.4C119.93 26.5867 120.523 25.9333 121.283 25.44C122.043 24.9333 122.923 24.68 123.923 24.68C124.483 24.68 125.01 24.7667 125.503 24.94C126.01 25.1133 126.456 25.3867 126.843 25.76C127.243 26.12 127.556 26.5933 127.783 27.18C128.01 27.7533 128.123 28.4533 128.123 29.28L121.243 29.4C121.243 30.3067 121.343 31.1133 121.543 31.82C121.756 32.5267 122.096 33.0733 122.563 33.46C123.03 33.8467 123.636 34.04 124.383 34.04C124.743 34.04 125.123 33.98 125.523 33.86C125.936 33.7267 126.323 33.54 126.683 33.3C127.056 33.06 127.37 32.7733 127.623 32.44L128.243 32.98C127.843 33.58 127.383 34.0533 126.863 34.4C126.343 34.7333 125.81 34.9667 125.263 35.1C124.73 35.2467 124.236 35.32 123.783 35.32ZM121.323 28.36H125.943C125.943 27.8533 125.87 27.4 125.723 27C125.59 26.5867 125.376 26.26 125.083 26.02C124.79 25.78 124.416 25.66 123.963 25.66C123.256 25.66 122.676 25.8867 122.223 26.34C121.77 26.78 121.47 27.4533 121.323 28.36ZM134.545 35.32C133.611 35.32 132.771 35.1067 132.025 34.68C131.291 34.24 130.711 33.6267 130.285 32.84C129.858 32.04 129.645 31.1 129.645 30.02C129.645 29.0867 129.851 28.2133 130.265 27.4C130.691 26.5867 131.285 25.9333 132.045 25.44C132.805 24.9333 133.685 24.68 134.685 24.68C135.245 24.68 135.771 24.7667 136.265 24.94C136.771 25.1133 137.218 25.3867 137.605 25.76C138.005 26.12 138.318 26.5933 138.545 27.18C138.771 27.7533 138.885 28.4533 138.885 29.28L132.005 29.4C132.005 30.3067 132.105 31.1133 132.305 31.82C132.518 32.5267 132.858 33.0733 133.325 33.46C133.791 33.8467 134.398 34.04 135.145 34.04C135.505 34.04 135.885 33.98 136.285 33.86C136.698 33.7267 137.085 33.54 137.445 33.3C137.818 33.06 138.131 32.7733 138.385 32.44L139.005 32.98C138.605 33.58 138.145 34.0533 137.625 34.4C137.105 34.7333 136.571 34.9667 136.025 35.1C135.491 35.2467 134.998 35.32 134.545 35.32ZM132.085 28.36H136.705C136.705 27.8533 136.631 27.4 136.485 27C136.351 26.5867 136.138 26.26 135.845 26.02C135.551 25.78 135.178 25.66 134.725 25.66C134.018 25.66 133.438 25.8867 132.985 26.34C132.531 26.78 132.231 27.4533 132.085 28.36ZM149.179 35V34.12C149.619 34.0933 149.932 34 150.119 33.84C150.306 33.68 150.426 33.44 150.479 33.12C150.532 32.7867 150.559 32.38 150.559 31.9L150.579 29.8L147.019 24.2C146.739 23.7333 146.512 23.32 146.339 22.96C146.179 22.6 146.086 22.3 146.059 22.06C145.846 22.0733 145.646 22.08 145.459 22.08C145.272 22.08 145.086 22.0867 144.899 22.1V21H150.299V21.88C149.766 21.8667 149.372 21.94 149.119 22.1C148.879 22.26 148.772 22.4933 148.799 22.8C148.826 23.0933 148.959 23.44 149.199 23.84L150.779 26.36C150.886 26.52 151.006 26.7067 151.139 26.92C151.272 27.1333 151.406 27.3533 151.539 27.58C151.686 27.7933 151.819 28.0133 151.939 28.24H151.979C152.099 27.9867 152.232 27.72 152.379 27.44C152.539 27.1467 152.699 26.8267 152.859 26.48L154.339 23.66C154.406 23.5267 154.492 23.36 154.599 23.16C154.706 22.96 154.819 22.76 154.939 22.56C155.072 22.3467 155.206 22.1733 155.339 22.04C155.099 22.0533 154.832 22.0667 154.539 22.08C154.259 22.08 154.006 22.0867 153.779 22.1V21H157.959V21.88C157.372 21.9333 156.879 22.1533 156.479 22.54C156.092 22.9133 155.679 23.5067 155.239 24.32C154.799 25.16 154.366 25.9867 153.939 26.8C153.512 27.6 153.099 28.3867 152.699 29.16C152.699 29.3733 152.692 29.6467 152.679 29.98C152.679 30.3133 152.679 30.6467 152.679 30.98C152.679 31.3133 152.679 31.6067 152.679 31.86C152.679 32.1 152.679 32.2533 152.679 32.32C152.679 32.68 152.672 33.0067 152.659 33.3C152.659 33.58 152.646 33.8067 152.619 33.98C152.886 33.9533 153.166 33.94 153.459 33.94C153.766 33.9267 154.032 33.9133 154.259 33.9V35H149.179ZM162.165 35.32C161.219 35.32 160.365 35.1067 159.605 34.68C158.845 34.2533 158.239 33.66 157.785 32.9C157.345 32.1267 157.125 31.24 157.125 30.24C157.125 29.16 157.345 28.2067 157.785 27.38C158.239 26.54 158.845 25.88 159.605 25.4C160.365 24.92 161.212 24.68 162.145 24.68C163.092 24.68 163.945 24.9 164.705 25.34C165.465 25.7667 166.065 26.3667 166.505 27.14C166.959 27.9 167.185 28.78 167.185 29.78C167.185 30.8333 166.965 31.78 166.525 32.62C166.085 33.46 165.485 34.12 164.725 34.6C163.979 35.08 163.125 35.32 162.165 35.32ZM162.305 34.32C162.945 34.3067 163.445 34.1067 163.805 33.72C164.179 33.3333 164.445 32.84 164.605 32.24C164.765 31.6267 164.845 30.9933 164.845 30.34C164.845 29.7667 164.792 29.2067 164.685 28.66C164.592 28.1 164.439 27.5933 164.225 27.14C164.012 26.6867 163.732 26.3267 163.385 26.06C163.039 25.78 162.619 25.6467 162.125 25.66C161.499 25.66 160.985 25.8533 160.585 26.24C160.199 26.6267 159.912 27.1267 159.725 27.74C159.552 28.34 159.465 28.98 159.465 29.66C159.465 30.4467 159.565 31.1933 159.765 31.9C159.965 32.6067 160.272 33.1867 160.685 33.64C161.112 34.0933 161.652 34.32 162.305 34.32ZM173.447 40.42C172.274 40.42 171.327 40.2867 170.607 40.02C169.901 39.7667 169.387 39.4333 169.067 39.02C168.761 38.62 168.607 38.1933 168.607 37.74C168.607 37.38 168.687 37.0467 168.847 36.74C169.021 36.4333 169.247 36.16 169.527 35.92C169.807 35.6933 170.121 35.5133 170.467 35.38C170.001 35.2333 169.647 35.0267 169.407 34.76C169.167 34.48 169.047 34.14 169.047 33.74C169.047 33.3133 169.214 32.8933 169.547 32.48C169.894 32.0667 170.387 31.7867 171.027 31.64C170.427 31.3733 169.947 30.9867 169.587 30.48C169.227 29.9733 169.041 29.3733 169.027 28.68C169.014 27.88 169.214 27.18 169.627 26.58C170.054 25.98 170.594 25.5133 171.247 25.18C171.914 24.8467 172.607 24.68 173.327 24.68C173.741 24.68 174.167 24.74 174.607 24.86C175.047 24.9667 175.447 25.14 175.807 25.38C175.954 24.9933 176.147 24.64 176.387 24.32C176.627 24 176.907 23.7467 177.227 23.56C177.561 23.3733 177.907 23.28 178.267 23.28C178.654 23.28 178.947 23.38 179.147 23.58C179.347 23.78 179.447 24.0467 179.447 24.38C179.447 24.4867 179.414 24.62 179.347 24.78C179.294 24.9267 179.194 25.0533 179.047 25.16C178.901 25.2667 178.701 25.32 178.447 25.32C178.234 25.32 178.041 25.2533 177.867 25.12C177.707 24.9733 177.607 24.8 177.567 24.6C177.287 24.6533 177.054 24.82 176.867 25.1C176.694 25.3667 176.581 25.64 176.527 25.92C176.874 26.2267 177.141 26.5933 177.327 27.02C177.527 27.4333 177.627 27.88 177.627 28.36C177.627 29.12 177.421 29.7933 177.007 30.38C176.607 30.9667 176.081 31.4267 175.427 31.76C174.774 32.0933 174.067 32.26 173.307 32.26C173.081 32.26 172.867 32.2467 172.667 32.22C172.467 32.18 172.247 32.16 172.007 32.16C171.581 32.16 171.227 32.26 170.947 32.46C170.681 32.66 170.581 32.9 170.647 33.18C170.714 33.4733 170.994 33.6667 171.487 33.76C171.981 33.8533 172.694 33.92 173.627 33.96C174.654 34 175.534 34.1267 176.267 34.34C177.014 34.54 177.587 34.8533 177.987 35.28C178.401 35.7067 178.607 36.2867 178.607 37.02C178.607 37.5667 178.454 38.0533 178.147 38.48C177.854 38.9067 177.454 39.26 176.947 39.54C176.454 39.8333 175.901 40.0533 175.287 40.2C174.674 40.3467 174.061 40.42 173.447 40.42ZM173.627 39.44C174.707 39.44 175.541 39.24 176.127 38.84C176.727 38.44 177.027 37.9867 177.027 37.48C177.027 37.0533 176.881 36.72 176.587 36.48C176.294 36.2533 175.881 36.0867 175.347 35.98C174.827 35.8867 174.214 35.8333 173.507 35.82C173.161 35.7933 172.807 35.7733 172.447 35.76C172.087 35.7467 171.754 35.7133 171.447 35.66C171.141 35.8733 170.901 36.1333 170.727 36.44C170.567 36.7467 170.481 37.0667 170.467 37.4C170.467 38.0133 170.754 38.5067 171.327 38.88C171.901 39.2533 172.667 39.44 173.627 39.44ZM173.367 31.32C173.821 31.32 174.194 31.2067 174.487 30.98C174.794 30.74 175.021 30.4267 175.167 30.04C175.327 29.64 175.407 29.2067 175.407 28.74C175.407 28.1933 175.327 27.68 175.167 27.2C175.007 26.72 174.774 26.3333 174.467 26.04C174.161 25.7467 173.767 25.6 173.287 25.6C172.634 25.6 172.127 25.86 171.767 26.38C171.407 26.9 171.227 27.5267 171.227 28.26C171.227 28.8467 171.307 29.3733 171.467 29.84C171.641 30.2933 171.887 30.6533 172.207 30.92C172.527 31.1867 172.914 31.32 173.367 31.32ZM185.742 35C185.716 34.7867 185.696 34.6 185.682 34.44C185.669 34.28 185.649 34.1133 185.622 33.94C185.169 34.3933 184.682 34.74 184.162 34.98C183.642 35.2067 183.102 35.32 182.542 35.32C181.582 35.32 180.856 35.0867 180.362 34.62C179.882 34.14 179.642 33.5467 179.642 32.84C179.642 32.2267 179.822 31.6933 180.182 31.24C180.542 30.7867 181.016 30.42 181.602 30.14C182.189 29.8467 182.829 29.6333 183.522 29.5C184.216 29.3533 184.896 29.28 185.562 29.28V28.1C185.562 27.6733 185.522 27.28 185.442 26.92C185.362 26.5467 185.196 26.2467 184.942 26.02C184.702 25.78 184.322 25.66 183.802 25.66C183.456 25.6467 183.109 25.7133 182.762 25.86C182.416 25.9933 182.149 26.22 181.962 26.54C182.069 26.6467 182.136 26.7733 182.162 26.92C182.202 27.0533 182.222 27.18 182.222 27.3C182.222 27.4867 182.142 27.7 181.982 27.94C181.822 28.1667 181.549 28.2733 181.162 28.26C180.842 28.26 180.596 28.1533 180.422 27.94C180.262 27.7133 180.182 27.4533 180.182 27.16C180.182 26.68 180.356 26.2533 180.702 25.88C181.062 25.5067 181.549 25.2133 182.162 25C182.776 24.7867 183.462 24.68 184.222 24.68C185.369 24.68 186.222 24.98 186.782 25.58C187.356 26.18 187.642 27.1267 187.642 28.42C187.642 28.9 187.642 29.36 187.642 29.8C187.642 30.24 187.636 30.68 187.622 31.12C187.622 31.56 187.622 32.0267 187.622 32.52C187.622 32.72 187.616 32.9467 187.602 33.2C187.589 33.4533 187.569 33.72 187.542 34C187.769 33.9867 188.002 33.9733 188.242 33.96C188.482 33.9467 188.709 33.94 188.922 33.94V35H185.742ZM185.562 30.2C185.136 30.2267 184.696 30.2867 184.242 30.38C183.802 30.4733 183.402 30.6133 183.042 30.8C182.682 30.9867 182.389 31.2267 182.162 31.52C181.949 31.8133 181.842 32.1667 181.842 32.58C181.869 33.0333 182.016 33.3667 182.282 33.58C182.562 33.7933 182.889 33.9 183.262 33.9C183.729 33.9 184.142 33.8133 184.502 33.64C184.862 33.4533 185.216 33.2 185.562 32.88C185.549 32.7333 185.542 32.5867 185.542 32.44C185.542 32.28 185.542 32.1133 185.542 31.94C185.542 31.82 185.542 31.6 185.542 31.28C185.556 30.9467 185.562 30.5867 185.562 30.2Z" fill="white"/>
</svg>
