<svg width="258" height="56" viewBox="0 0 258 56" fill="none" xmlns="http://www.w3.org/2000/svg">
<path d="M21.1051 50.4729C21.7667 51.7184 22.699 52.5191 23.4446 53.0053C23.4446 53.0053 23.4446 53.0065 23.4458 53.0065C24.5886 53.5266 25.5084 53.8574 26.0622 54.0441C27.8904 54.6606 36.425 57.3308 45.8743 53.4063C50.1648 51.6257 53.1145 49.1196 54.8086 47.4455C53.7686 48.1534 52.4165 48.9491 50.7575 49.6383C50.2199 49.8626 47.6975 50.8851 44.1238 51.2836C42.8256 51.4289 41.248 51.5079 39.4536 51.3901C40.738 51.0443 42.2154 50.5368 43.788 49.7799C46.6474 48.4041 48.7638 46.7124 50.2086 45.3403C47.9443 46.6586 45.9244 47.4956 44.4245 48.0294C42.5512 48.6948 40.6929 49.3413 38.1266 49.5506C35.2058 49.7887 33.152 49.3313 32.6608 49.2148C31.0005 48.8201 29.8414 48.2412 29.4329 48.0269C28.9994 47.8013 28.5082 47.5407 27.918 47.0896C27.5383 46.7989 26.5396 45.9869 25.68 44.601C25.4131 44.17 25.0823 43.5585 24.8029 42.7778C24.3518 42.7866 23.2742 42.8706 22.2379 43.6086C20.7894 44.6386 20.4698 46.1962 20.3796 46.6698C20.04 48.4667 20.7868 49.8739 21.1051 50.4729Z" fill="white"/>
<path d="M0.894463 21.4934C1.37939 21.7992 2.01469 22.234 2.71014 22.8141C3.22013 23.2402 3.85919 23.7777 4.52707 24.5835C4.80901 24.9243 5.57463 25.8891 6.20116 27.3201C6.86904 28.8438 6.98306 29.9891 7.19232 31.2347C7.19232 31.2347 7.51311 33.1456 8.74862 37.0852C9.98539 41.0261 12.1607 43.7878 13.1594 45.0571C15.0164 47.4154 17.1128 49.2085 19.0888 50.5556C20.6815 51.6407 22.1964 52.4377 23.4445 53.0053C22.6989 52.5191 21.7666 51.7184 21.105 50.4729C20.7867 49.8739 20.0399 48.4667 20.3795 46.6698C20.4697 46.1962 20.7892 44.6386 22.2378 43.6086C23.2741 42.8706 24.3517 42.7866 24.8028 42.7778C24.8028 42.7778 24.8028 42.777 24.8028 42.7753C25.383 42.8305 26.1736 42.8881 27.1159 42.8944C27.4517 42.8969 27.9768 42.8994 28.5845 42.863C29.2662 42.8229 30.5443 42.739 32.0956 42.2704C32.8411 42.0461 33.8499 41.6714 34.9701 41.0323C34.2834 41.1263 33.4739 41.2015 32.5642 41.2178C31.5793 41.2366 30.8388 41.1789 30.3263 41.1388C29.5632 41.0774 29.0068 40.9885 27.8941 40.8118C27.8941 40.8118 27.2162 40.7028 26.205 40.293C26.1022 40.2504 25.8278 40.1351 25.6035 39.8645C25.5083 39.7517 25.3203 39.5236 25.3642 39.2542C25.3955 39.0638 25.5283 38.941 25.5859 38.8896C25.9982 38.5187 26.6911 38.5964 26.9505 38.624C26.9505 38.624 27.983 38.7342 29.9842 38.8357C30.5343 38.8633 31.0367 38.8257 32.0429 38.7505C32.286 38.7317 34.2859 38.5776 35.9963 38.238C39.1515 37.6102 42.0561 36.2068 43.2227 35.6104C41.689 35.8372 40.3645 35.9512 39.3195 36.0113C38.3433 36.0677 37.5602 36.069 35.9926 36.0702C35.9688 36.0702 34.5816 36.0702 32.7146 35.787C32.6682 35.7808 31.6683 35.6204 31.0042 34.9851C30.8638 34.851 30.7297 34.6881 30.721 34.4788C30.7059 34.1092 31.0806 33.836 31.1696 33.7709C31.5568 33.4889 31.9941 33.4802 32.1958 33.4764C33.202 33.4551 34.2082 33.3837 35.2144 33.3699C35.7357 33.3624 36.1242 33.3335 36.9011 33.2759C37.5539 33.227 39.352 33.0867 41.4183 32.509C42.5962 32.1795 44.2151 31.7133 46.0534 30.5743C47.0019 29.9866 48.3177 29.0268 49.6146 27.5319C47.9906 28.1296 46.5872 28.4416 45.5459 28.617C44.1813 28.8464 43.0886 28.8977 41.8068 28.9591C41.1376 28.9905 40.4923 28.9879 39.2004 28.9829C39.2004 28.9829 38.312 28.9804 36.2758 28.6045C36.0753 28.5682 35.5678 28.4679 35.3097 28.0745C35.2683 28.0131 35.1944 27.8965 35.1906 27.7437C35.1894 27.6296 35.2245 27.3515 35.757 26.9893C37.0552 26.1097 38.3759 26.0107 38.3759 26.0107C40.0876 25.8816 41.7404 25.3253 43.4232 24.9844C44.7402 24.7175 46.8228 24.2952 49.0369 23.0622C49.8426 22.6136 52.0906 21.2641 54.0366 18.6164C55.3636 16.8107 56.0528 15.0778 56.4199 13.9099C55.4902 14.6254 54.1932 15.5339 52.5517 16.4223C51.8939 16.7782 49.2036 18.2004 45.2865 19.1815C43.2603 19.6903 41.7003 19.8807 39.8044 20.1138C38.5213 20.2704 36.7695 20.4809 34.4664 20.5386C32.7071 20.5824 28.7086 20.6827 27.0746 20.6501C26.8741 20.6463 26.2826 20.6326 25.5208 20.7917C25.4907 20.798 25.0308 20.8957 24.695 21.0223C23.6926 21.3982 23.0961 22.3092 22.7841 22.744C21.8381 24.0634 21.4308 25.0208 20.8156 26.2112C20.4108 26.9931 19.4372 28.8 17.9486 30.7284C17.9486 30.7284 16.9787 31.9853 15.3898 33.1694C15.0365 33.4325 14.4889 33.8122 13.7157 33.9125C13.4188 33.9501 12.9213 34.0077 12.4063 33.7471C11.9101 33.4952 11.6733 33.0892 11.4866 32.7684C10.9941 31.9214 11.0292 31.0993 11.038 30.9402C11.058 30.6006 11.1069 29.746 11.7459 29.1358C12.088 28.8088 12.4865 28.6609 12.6068 28.617C12.8987 28.5118 13.1268 28.4905 13.4438 28.4629C14.7382 28.3526 14.9337 28.3476 15.2608 28.31C15.7808 28.2499 16.2594 28.1948 16.7933 27.9918C17.1792 27.8452 17.7857 27.5469 18.4097 26.9066C18.0438 27.0081 17.5037 27.1084 16.8521 27.0607C16.0113 26.9981 15.4161 26.7174 15.272 26.6472C14.7758 26.4054 14.4225 26.1097 14.1994 25.8929C14.5879 25.9029 15.2081 25.8691 15.9086 25.6097C16.4612 25.4042 16.8734 25.1298 17.1466 24.9143C16.8308 24.9957 16.3346 25.0909 15.7319 25.0559C15.3961 25.0346 14.836 24.9631 13.2083 24.2301C12.0266 23.6975 12.0642 23.6199 11.2272 23.2865C10.4252 22.967 9.85632 22.7415 9.08068 22.6725C8.58447 22.6299 7.82637 22.6349 6.91039 22.9319C6.01194 22.3956 5.20999 22.0711 4.62231 21.8706C4.13111 21.7039 3.61359 21.531 2.9006 21.447C2.06983 21.3468 1.37188 21.4145 0.895714 21.4934H0.894463Z" fill="white"/>
<path d="M12.4276 15.1254C13.5228 13.2421 16.1029 9.38892 20.966 6.49311C26.2526 3.34418 31.2398 3.11361 32.9013 3.09607C41.4547 3.0046 47.2125 7.64843 48.4681 8.70977C50.8789 10.7485 52.5555 12.994 53.7159 15.0202C54.5153 14.524 55.2922 13.9864 56.0353 13.4137L56.3711 13.1556C53.1796 6.68859 47.1411 3.581 44.8831 2.57731C37.5552 -0.680643 29.1472 0.0285873 22.7115 3.71007C16.3033 7.37401 13.415 12.9539 12.4276 15.1254Z" fill="white"/>
<path d="M31.262 48.0294C33.5564 48.2938 38.2303 48.5219 43.5395 46.4368C46.3175 45.3466 48.2384 44.0222 48.8524 43.5823C49.5717 43.0661 52.0352 41.2366 54.332 38.0676C58.4233 32.4214 59.041 26.5859 59.1676 25.0246C59.3405 22.8843 59.6763 17.9836 57.0549 12.6143C55.4748 9.37764 53.4173 7.19231 52.0314 5.92798C54.0664 7.34769 57.902 10.4465 60.5221 15.7996C61.0647 16.9085 63.74 22.5761 62.9631 30.1997C62.6949 32.8374 62.1611 37.5276 58.7528 42.1589C55.3433 46.7914 51.0227 48.6986 49.9213 49.1559C47.2548 50.2624 44.8602 50.5894 43.2563 50.6859C45.0394 50.0544 46.3964 49.2637 47.3249 48.6334C48.7083 47.6949 49.6318 46.7801 50.1807 46.2301C51.1831 45.2264 51.9412 44.2715 52.4913 43.5021C50.6305 44.5572 48.9652 45.368 47.6094 45.9782C44.8527 47.2187 42.8077 48.1222 39.9307 48.6334C37.0649 49.1434 35.2104 48.9367 34.6854 48.8702C33.2431 48.6885 32.074 48.3302 31.2645 48.0294H31.262Z" fill="white"/>
<path d="M78.1635 35V34.12C78.6035 34.1067 78.9168 34.02 79.1035 33.86C79.3035 33.6867 79.4302 33.4333 79.4835 33.1C79.5368 32.7667 79.5635 32.3467 79.5635 31.84V23.68C79.5635 23.32 79.5702 23 79.5835 22.72C79.5968 22.4267 79.6102 22.1933 79.6235 22.02C79.3968 22.0333 79.1502 22.0467 78.8835 22.06C78.6168 22.0733 78.3768 22.0867 78.1635 22.1V21C78.9635 20.9867 79.7635 20.98 80.5635 20.98C81.3635 20.9667 82.1835 20.96 83.0235 20.96C84.5968 20.96 85.8302 21.2467 86.7235 21.82C87.6168 22.38 88.0435 23.26 88.0035 24.46C87.9902 24.8733 87.8635 25.2867 87.6235 25.7C87.3968 26.1 87.0502 26.46 86.5835 26.78C86.1168 27.0867 85.5368 27.3133 84.8435 27.46V27.5C86.2702 27.5667 87.3368 27.94 88.0435 28.62C88.7502 29.2867 89.1035 30.1 89.1035 31.06C89.1035 31.8867 88.8902 32.6 88.4635 33.2C88.0502 33.7867 87.4835 34.2333 86.7635 34.54C86.0568 34.8467 85.2435 35 84.3235 35H78.1635ZM81.6235 34C81.8502 34 82.0968 34.0067 82.3635 34.02C82.6302 34.02 82.8835 34.02 83.1235 34.02C83.3768 34.02 83.5635 34.02 83.6835 34.02C84.6435 34.0067 85.3968 33.7467 85.9435 33.24C86.4902 32.7333 86.7635 32.0267 86.7635 31.12C86.7635 30.3733 86.6102 29.7933 86.3035 29.38C86.0102 28.9533 85.6235 28.6533 85.1435 28.48C84.6635 28.3067 84.1502 28.22 83.6035 28.22C83.2302 28.22 82.8902 28.2267 82.5835 28.24C82.2902 28.24 81.9902 28.2467 81.6835 28.26V32.36C81.6835 32.72 81.6768 33.04 81.6635 33.32C81.6635 33.6 81.6502 33.8267 81.6235 34ZM81.6835 27.28L83.0035 27.24C83.6968 27.2267 84.2435 27.08 84.6435 26.8C85.0568 26.52 85.3502 26.16 85.5235 25.72C85.6968 25.28 85.7768 24.82 85.7635 24.34C85.7635 23.6733 85.6235 23.1667 85.3435 22.82C85.0635 22.4733 84.7168 22.2333 84.3035 22.1C83.8902 21.9667 83.4835 21.9 83.0835 21.9C82.7102 21.9 82.4235 21.9533 82.2235 22.06C82.0235 22.1667 81.8835 22.3533 81.8035 22.62C81.7235 22.8733 81.6835 23.2533 81.6835 23.76V27.28ZM96.743 34.16C97.143 34.16 97.423 34.0667 97.583 33.88C97.7564 33.6933 97.8564 33.4333 97.883 33.1C97.923 32.7667 97.943 32.38 97.943 31.94L97.923 29.14C97.923 28.0867 97.7564 27.3 97.423 26.78C97.103 26.2467 96.583 25.9867 95.863 26C95.423 26.0133 94.9897 26.12 94.563 26.32C94.1497 26.52 93.803 26.7733 93.523 27.08V32.52C93.523 32.76 93.5164 33.0067 93.503 33.26C93.4897 33.5 93.4697 33.7467 93.443 34C93.6564 33.9867 93.8697 33.98 94.083 33.98C94.3097 33.9667 94.5164 33.9533 94.703 33.94V35H90.243V34.16C90.643 34.16 90.923 34.0667 91.083 33.88C91.243 33.6933 91.343 33.4333 91.383 33.1C91.423 32.7667 91.443 32.38 91.443 31.94V22.9C91.443 22.6733 91.443 22.4467 91.443 22.22C91.4564 21.98 91.4764 21.7267 91.503 21.46C91.2764 21.4733 91.0364 21.4867 90.783 21.5C90.5297 21.5 90.2964 21.5067 90.083 21.52V20.46C90.683 20.46 91.163 20.4333 91.523 20.38C91.883 20.3133 92.1564 20.24 92.343 20.16C92.543 20.08 92.6897 19.9933 92.783 19.9H93.523V25.94C93.8164 25.7 94.143 25.4867 94.503 25.3C94.863 25.1133 95.2297 24.9667 95.603 24.86C95.9897 24.74 96.3497 24.68 96.683 24.68C97.8697 24.68 98.7164 25.04 99.223 25.76C99.743 26.48 100.01 27.6067 100.023 29.14V32.52C100.023 32.76 100.016 33.0067 100.003 33.26C100.003 33.5 99.983 33.7467 99.943 34C100.156 33.9867 100.376 33.98 100.603 33.98C100.83 33.9667 101.036 33.9533 101.223 33.94V35H96.743V34.16ZM107.552 35.32C106.605 35.32 105.752 35.1067 104.992 34.68C104.232 34.2533 103.625 33.66 103.172 32.9C102.732 32.1267 102.512 31.24 102.512 30.24C102.512 29.16 102.732 28.2067 103.172 27.38C103.625 26.54 104.232 25.88 104.992 25.4C105.752 24.92 106.599 24.68 107.532 24.68C108.479 24.68 109.332 24.9 110.092 25.34C110.852 25.7667 111.452 26.3667 111.892 27.14C112.345 27.9 112.572 28.78 112.572 29.78C112.572 30.8333 112.352 31.78 111.912 32.62C111.472 33.46 110.872 34.12 110.112 34.6C109.365 35.08 108.512 35.32 107.552 35.32ZM107.692 34.32C108.332 34.3067 108.832 34.1067 109.192 33.72C109.565 33.3333 109.832 32.84 109.992 32.24C110.152 31.6267 110.232 30.9933 110.232 30.34C110.232 29.7667 110.179 29.2067 110.072 28.66C109.979 28.1 109.825 27.5933 109.612 27.14C109.399 26.6867 109.119 26.3267 108.772 26.06C108.425 25.78 108.005 25.6467 107.512 25.66C106.885 25.66 106.372 25.8533 105.972 26.24C105.585 26.6267 105.299 27.1267 105.112 27.74C104.939 28.34 104.852 28.98 104.852 29.66C104.852 30.4467 104.952 31.1933 105.152 31.9C105.352 32.6067 105.659 33.1867 106.072 33.64C106.499 34.0933 107.039 34.32 107.692 34.32ZM113.934 34.16C114.334 34.16 114.614 34.0667 114.774 33.88C114.934 33.6933 115.028 33.4333 115.054 33.1C115.094 32.7667 115.114 32.38 115.114 31.94V22.9C115.114 22.6733 115.114 22.4467 115.114 22.22C115.128 21.98 115.148 21.7267 115.174 21.46C114.948 21.4733 114.708 21.4867 114.454 21.5C114.201 21.5 113.974 21.5067 113.774 21.52V20.46C114.374 20.46 114.848 20.4333 115.194 20.38C115.554 20.3133 115.828 20.24 116.014 20.16C116.214 20.08 116.361 19.9933 116.454 19.9H117.214V32.52C117.214 32.76 117.208 33.0067 117.194 33.26C117.181 33.5 117.161 33.7467 117.134 34C117.348 33.9867 117.561 33.98 117.774 33.98C118.001 33.9667 118.208 33.9533 118.394 33.94V35H113.934V34.16ZM124.678 35.32C123.744 35.32 122.904 35.1067 122.158 34.68C121.424 34.24 120.844 33.6267 120.418 32.84C119.991 32.04 119.778 31.1 119.778 30.02C119.778 29.0867 119.984 28.2133 120.398 27.4C120.824 26.5867 121.418 25.9333 122.178 25.44C122.938 24.9333 123.818 24.68 124.818 24.68C125.378 24.68 125.904 24.7667 126.398 24.94C126.904 25.1133 127.351 25.3867 127.738 25.76C128.138 26.12 128.451 26.5933 128.678 27.18C128.904 27.7533 129.018 28.4533 129.018 29.28L122.138 29.4C122.138 30.3067 122.238 31.1133 122.438 31.82C122.651 32.5267 122.991 33.0733 123.458 33.46C123.924 33.8467 124.531 34.04 125.278 34.04C125.638 34.04 126.018 33.98 126.418 33.86C126.831 33.7267 127.218 33.54 127.578 33.3C127.951 33.06 128.264 32.7733 128.518 32.44L129.138 32.98C128.738 33.58 128.278 34.0533 127.758 34.4C127.238 34.7333 126.704 34.9667 126.158 35.1C125.624 35.2467 125.131 35.32 124.678 35.32ZM122.218 28.36H126.838C126.838 27.8533 126.764 27.4 126.618 27C126.484 26.5867 126.271 26.26 125.978 26.02C125.684 25.78 125.311 25.66 124.858 25.66C124.151 25.66 123.571 25.8867 123.118 26.34C122.664 26.78 122.364 27.4533 122.218 28.36ZM135.439 35.32C134.506 35.32 133.666 35.1067 132.919 34.68C132.186 34.24 131.606 33.6267 131.179 32.84C130.753 32.04 130.539 31.1 130.539 30.02C130.539 29.0867 130.746 28.2133 131.159 27.4C131.586 26.5867 132.179 25.9333 132.939 25.44C133.699 24.9333 134.579 24.68 135.579 24.68C136.139 24.68 136.666 24.7667 137.159 24.94C137.666 25.1133 138.113 25.3867 138.499 25.76C138.899 26.12 139.213 26.5933 139.439 27.18C139.666 27.7533 139.779 28.4533 139.779 29.28L132.899 29.4C132.899 30.3067 132.999 31.1133 133.199 31.82C133.413 32.5267 133.753 33.0733 134.219 33.46C134.686 33.8467 135.293 34.04 136.039 34.04C136.399 34.04 136.779 33.98 137.179 33.86C137.593 33.7267 137.979 33.54 138.339 33.3C138.713 33.06 139.026 32.7733 139.279 32.44L139.899 32.98C139.499 33.58 139.039 34.0533 138.519 34.4C137.999 34.7333 137.466 34.9667 136.919 35.1C136.386 35.2467 135.893 35.32 135.439 35.32ZM132.979 28.36H137.599C137.599 27.8533 137.526 27.4 137.379 27C137.246 26.5867 137.033 26.26 136.739 26.02C136.446 25.78 136.073 25.66 135.619 25.66C134.913 25.66 134.333 25.8867 133.879 26.34C133.426 26.78 133.126 27.4533 132.979 28.36ZM150.074 35V34.12C150.514 34.0933 150.827 34 151.014 33.84C151.2 33.68 151.32 33.44 151.374 33.12C151.427 32.7867 151.454 32.38 151.454 31.9L151.474 29.8L147.914 24.2C147.634 23.7333 147.407 23.32 147.234 22.96C147.074 22.6 146.98 22.3 146.954 22.06C146.74 22.0733 146.54 22.08 146.354 22.08C146.167 22.08 145.98 22.0867 145.794 22.1V21H151.194V21.88C150.66 21.8667 150.267 21.94 150.014 22.1C149.774 22.26 149.667 22.4933 149.694 22.8C149.72 23.0933 149.854 23.44 150.094 23.84L151.674 26.36C151.78 26.52 151.9 26.7067 152.034 26.92C152.167 27.1333 152.3 27.3533 152.434 27.58C152.58 27.7933 152.714 28.0133 152.834 28.24H152.874C152.994 27.9867 153.127 27.72 153.274 27.44C153.434 27.1467 153.594 26.8267 153.754 26.48L155.234 23.66C155.3 23.5267 155.387 23.36 155.494 23.16C155.6 22.96 155.714 22.76 155.834 22.56C155.967 22.3467 156.1 22.1733 156.234 22.04C155.994 22.0533 155.727 22.0667 155.434 22.08C155.154 22.08 154.9 22.0867 154.674 22.1V21H158.854V21.88C158.267 21.9333 157.774 22.1533 157.374 22.54C156.987 22.9133 156.574 23.5067 156.134 24.32C155.694 25.16 155.26 25.9867 154.834 26.8C154.407 27.6 153.994 28.3867 153.594 29.16C153.594 29.3733 153.587 29.6467 153.574 29.98C153.574 30.3133 153.574 30.6467 153.574 30.98C153.574 31.3133 153.574 31.6067 153.574 31.86C153.574 32.1 153.574 32.2533 153.574 32.32C153.574 32.68 153.567 33.0067 153.554 33.3C153.554 33.58 153.54 33.8067 153.514 33.98C153.78 33.9533 154.06 33.94 154.354 33.94C154.66 33.9267 154.927 33.9133 155.154 33.9V35H150.074ZM163.06 35.32C162.113 35.32 161.26 35.1067 160.5 34.68C159.74 34.2533 159.133 33.66 158.68 32.9C158.24 32.1267 158.02 31.24 158.02 30.24C158.02 29.16 158.24 28.2067 158.68 27.38C159.133 26.54 159.74 25.88 160.5 25.4C161.26 24.92 162.106 24.68 163.04 24.68C163.986 24.68 164.84 24.9 165.6 25.34C166.36 25.7667 166.96 26.3667 167.4 27.14C167.853 27.9 168.08 28.78 168.08 29.78C168.08 30.8333 167.86 31.78 167.42 32.62C166.98 33.46 166.38 34.12 165.62 34.6C164.873 35.08 164.02 35.32 163.06 35.32ZM163.2 34.32C163.84 34.3067 164.34 34.1067 164.7 33.72C165.073 33.3333 165.34 32.84 165.5 32.24C165.66 31.6267 165.74 30.9933 165.74 30.34C165.74 29.7667 165.686 29.2067 165.58 28.66C165.486 28.1 165.333 27.5933 165.12 27.14C164.906 26.6867 164.626 26.3267 164.28 26.06C163.933 25.78 163.513 25.6467 163.02 25.66C162.393 25.66 161.88 25.8533 161.48 26.24C161.093 26.6267 160.806 27.1267 160.62 27.74C160.446 28.34 160.36 28.98 160.36 29.66C160.36 30.4467 160.46 31.1933 160.66 31.9C160.86 32.6067 161.166 33.1867 161.58 33.64C162.006 34.0933 162.546 34.32 163.2 34.32ZM174.342 40.42C173.168 40.42 172.222 40.2867 171.502 40.02C170.795 39.7667 170.282 39.4333 169.962 39.02C169.655 38.62 169.502 38.1933 169.502 37.74C169.502 37.38 169.582 37.0467 169.742 36.74C169.915 36.4333 170.142 36.16 170.422 35.92C170.702 35.6933 171.015 35.5133 171.362 35.38C170.895 35.2333 170.542 35.0267 170.302 34.76C170.062 34.48 169.942 34.14 169.942 33.74C169.942 33.3133 170.108 32.8933 170.442 32.48C170.788 32.0667 171.282 31.7867 171.922 31.64C171.322 31.3733 170.842 30.9867 170.482 30.48C170.122 29.9733 169.935 29.3733 169.922 28.68C169.908 27.88 170.108 27.18 170.522 26.58C170.948 25.98 171.488 25.5133 172.142 25.18C172.808 24.8467 173.502 24.68 174.222 24.68C174.635 24.68 175.062 24.74 175.502 24.86C175.942 24.9667 176.342 25.14 176.702 25.38C176.848 24.9933 177.042 24.64 177.282 24.32C177.522 24 177.802 23.7467 178.122 23.56C178.455 23.3733 178.802 23.28 179.162 23.28C179.548 23.28 179.842 23.38 180.042 23.58C180.242 23.78 180.342 24.0467 180.342 24.38C180.342 24.4867 180.308 24.62 180.242 24.78C180.188 24.9267 180.088 25.0533 179.942 25.16C179.795 25.2667 179.595 25.32 179.342 25.32C179.128 25.32 178.935 25.2533 178.762 25.12C178.602 24.9733 178.502 24.8 178.462 24.6C178.182 24.6533 177.948 24.82 177.762 25.1C177.588 25.3667 177.475 25.64 177.422 25.92C177.768 26.2267 178.035 26.5933 178.222 27.02C178.422 27.4333 178.522 27.88 178.522 28.36C178.522 29.12 178.315 29.7933 177.902 30.38C177.502 30.9667 176.975 31.4267 176.322 31.76C175.668 32.0933 174.962 32.26 174.202 32.26C173.975 32.26 173.762 32.2467 173.562 32.22C173.362 32.18 173.142 32.16 172.902 32.16C172.475 32.16 172.122 32.26 171.842 32.46C171.575 32.66 171.475 32.9 171.542 33.18C171.608 33.4733 171.888 33.6667 172.382 33.76C172.875 33.8533 173.588 33.92 174.522 33.96C175.548 34 176.428 34.1267 177.162 34.34C177.908 34.54 178.482 34.8533 178.882 35.28C179.295 35.7067 179.502 36.2867 179.502 37.02C179.502 37.5667 179.348 38.0533 179.042 38.48C178.748 38.9067 178.348 39.26 177.842 39.54C177.348 39.8333 176.795 40.0533 176.182 40.2C175.568 40.3467 174.955 40.42 174.342 40.42ZM174.522 39.44C175.602 39.44 176.435 39.24 177.022 38.84C177.622 38.44 177.922 37.9867 177.922 37.48C177.922 37.0533 177.775 36.72 177.482 36.48C177.188 36.2533 176.775 36.0867 176.242 35.98C175.722 35.8867 175.108 35.8333 174.402 35.82C174.055 35.7933 173.702 35.7733 173.342 35.76C172.982 35.7467 172.648 35.7133 172.342 35.66C172.035 35.8733 171.795 36.1333 171.622 36.44C171.462 36.7467 171.375 37.0667 171.362 37.4C171.362 38.0133 171.648 38.5067 172.222 38.88C172.795 39.2533 173.562 39.44 174.522 39.44ZM174.262 31.32C174.715 31.32 175.088 31.2067 175.382 30.98C175.688 30.74 175.915 30.4267 176.062 30.04C176.222 29.64 176.302 29.2067 176.302 28.74C176.302 28.1933 176.222 27.68 176.062 27.2C175.902 26.72 175.668 26.3333 175.362 26.04C175.055 25.7467 174.662 25.6 174.182 25.6C173.528 25.6 173.022 25.86 172.662 26.38C172.302 26.9 172.122 27.5267 172.122 28.26C172.122 28.8467 172.202 29.3733 172.362 29.84C172.535 30.2933 172.782 30.6533 173.102 30.92C173.422 31.1867 173.808 31.32 174.262 31.32ZM186.637 35C186.61 34.7867 186.59 34.6 186.577 34.44C186.564 34.28 186.544 34.1133 186.517 33.94C186.064 34.3933 185.577 34.74 185.057 34.98C184.537 35.2067 183.997 35.32 183.437 35.32C182.477 35.32 181.75 35.0867 181.257 34.62C180.777 34.14 180.537 33.5467 180.537 32.84C180.537 32.2267 180.717 31.6933 181.077 31.24C181.437 30.7867 181.91 30.42 182.497 30.14C183.084 29.8467 183.724 29.6333 184.417 29.5C185.11 29.3533 185.79 29.28 186.457 29.28V28.1C186.457 27.6733 186.417 27.28 186.337 26.92C186.257 26.5467 186.09 26.2467 185.837 26.02C185.597 25.78 185.217 25.66 184.697 25.66C184.35 25.6467 184.004 25.7133 183.657 25.86C183.31 25.9933 183.044 26.22 182.857 26.54C182.964 26.6467 183.03 26.7733 183.057 26.92C183.097 27.0533 183.117 27.18 183.117 27.3C183.117 27.4867 183.037 27.7 182.877 27.94C182.717 28.1667 182.444 28.2733 182.057 28.26C181.737 28.26 181.49 28.1533 181.317 27.94C181.157 27.7133 181.077 27.4533 181.077 27.16C181.077 26.68 181.25 26.2533 181.597 25.88C181.957 25.5067 182.444 25.2133 183.057 25C183.67 24.7867 184.357 24.68 185.117 24.68C186.264 24.68 187.117 24.98 187.677 25.58C188.25 26.18 188.537 27.1267 188.537 28.42C188.537 28.9 188.537 29.36 188.537 29.8C188.537 30.24 188.53 30.68 188.517 31.12C188.517 31.56 188.517 32.0267 188.517 32.52C188.517 32.72 188.51 32.9467 188.497 33.2C188.484 33.4533 188.464 33.72 188.437 34C188.664 33.9867 188.897 33.9733 189.137 33.96C189.377 33.9467 189.604 33.94 189.817 33.94V35H186.637ZM186.457 30.2C186.03 30.2267 185.59 30.2867 185.137 30.38C184.697 30.4733 184.297 30.6133 183.937 30.8C183.577 30.9867 183.284 31.2267 183.057 31.52C182.844 31.8133 182.737 32.1667 182.737 32.58C182.764 33.0333 182.91 33.3667 183.177 33.58C183.457 33.7933 183.784 33.9 184.157 33.9C184.624 33.9 185.037 33.8133 185.397 33.64C185.757 33.4533 186.11 33.2 186.457 32.88C186.444 32.7333 186.437 32.5867 186.437 32.44C186.437 32.28 186.437 32.1133 186.437 31.94C186.437 31.82 186.437 31.6 186.437 31.28C186.45 30.9467 186.457 30.5867 186.457 30.2ZM204.502 25.32C204.435 24.64 204.262 24.0267 203.982 23.48C203.702 22.9333 203.315 22.5 202.822 22.18C202.329 21.8467 201.715 21.6867 200.982 21.7C200.235 21.7 199.642 21.9067 199.202 22.32C198.762 22.7333 198.542 23.2333 198.542 23.82C198.542 24.34 198.689 24.78 198.982 25.14C199.275 25.4867 199.669 25.8 200.162 26.08C200.669 26.36 201.235 26.64 201.862 26.92C202.369 27.1333 202.882 27.3733 203.402 27.64C203.922 27.9067 204.395 28.2133 204.822 28.56C205.249 28.8933 205.589 29.3 205.842 29.78C206.095 30.2467 206.222 30.8 206.222 31.44C206.222 32.1867 206.029 32.8533 205.642 33.44C205.255 34.0267 204.702 34.4867 203.982 34.82C203.275 35.1533 202.415 35.32 201.402 35.32C200.829 35.32 200.222 35.2333 199.582 35.06C198.955 34.8867 198.382 34.64 197.862 34.32L197.962 35.16H196.742L196.662 30.76H197.622C197.729 31.92 198.142 32.8 198.862 33.4C199.595 33.9867 200.469 34.28 201.482 34.28C201.989 34.28 202.449 34.1867 202.862 34C203.275 33.8133 203.602 33.5467 203.842 33.2C204.082 32.8533 204.202 32.4467 204.202 31.98C204.202 31.4333 204.035 30.9733 203.702 30.6C203.382 30.2267 202.969 29.9067 202.462 29.64C201.969 29.3733 201.449 29.12 200.902 28.88C200.355 28.64 199.822 28.3867 199.302 28.12C198.795 27.8533 198.335 27.5467 197.922 27.2C197.509 26.8533 197.182 26.4467 196.942 25.98C196.702 25.5 196.582 24.94 196.582 24.3C196.582 23.9267 196.649 23.5333 196.782 23.12C196.915 22.7067 197.142 22.3133 197.462 21.94C197.782 21.5667 198.215 21.2667 198.762 21.04C199.322 20.8 200.022 20.68 200.862 20.68C201.369 20.68 201.935 20.7533 202.562 20.9C203.202 21.0467 203.782 21.3067 204.302 21.68L204.222 20.84H205.422V25.32H204.502ZM211.627 35.32C211.294 35.32 210.961 35.2733 210.627 35.18C210.294 35.1 209.981 34.9333 209.687 34.68C209.407 34.4133 209.187 34.0333 209.027 33.54C208.867 33.0467 208.787 32.3933 208.787 31.58L208.827 26.12H207.347V25C207.707 24.9867 208.074 24.8533 208.447 24.6C208.821 24.3467 209.147 24.0067 209.427 23.58C209.707 23.1533 209.901 22.6933 210.007 22.2H210.947V25H214.027V26.04L210.947 26.08L210.907 31.42C210.907 31.9267 210.947 32.3733 211.027 32.76C211.121 33.1333 211.267 33.4267 211.467 33.64C211.681 33.84 211.967 33.94 212.327 33.94C212.634 33.94 212.947 33.8467 213.267 33.66C213.601 33.4733 213.914 33.1667 214.207 32.74L214.887 33.34C214.567 33.8067 214.247 34.1733 213.927 34.44C213.607 34.7067 213.301 34.9 213.007 35.02C212.714 35.1533 212.447 35.2333 212.207 35.26C211.967 35.3 211.774 35.32 211.627 35.32ZM219.937 35.32C219.19 35.32 218.57 35.18 218.077 34.9C217.597 34.62 217.237 34.16 216.997 33.52C216.757 32.8667 216.637 32.0067 216.637 30.94V27.8C216.637 27.5733 216.637 27.34 216.637 27.1C216.65 26.8467 216.677 26.6 216.717 26.36C216.49 26.3733 216.25 26.3867 215.997 26.4C215.744 26.4 215.517 26.4067 215.317 26.42V25.36H215.797C216.464 25.36 216.964 25.3 217.297 25.18C217.63 25.06 217.864 24.9333 217.997 24.8H218.757V30.9C218.757 31.9533 218.904 32.74 219.197 33.26C219.49 33.78 219.984 34.0333 220.677 34.02C221.13 34.02 221.564 33.8867 221.977 33.62C222.404 33.3533 222.75 33.04 223.017 32.68V27.94C223.017 27.6467 223.024 27.3733 223.037 27.12C223.05 26.8533 223.077 26.6 223.117 26.36C222.877 26.3733 222.63 26.3867 222.377 26.4C222.124 26.4 221.89 26.4067 221.677 26.42V25.36H222.257C222.844 25.36 223.304 25.3 223.637 25.18C223.97 25.06 224.21 24.9333 224.357 24.8H225.117L225.097 32.16C225.097 32.3733 225.09 32.6667 225.077 33.04C225.064 33.4 225.044 33.72 225.017 34C225.244 33.9867 225.477 33.9733 225.717 33.96C225.97 33.9467 226.204 33.94 226.417 33.94V35H223.237C223.21 34.7867 223.184 34.5867 223.157 34.4C223.144 34.2133 223.124 34.0333 223.097 33.86C222.684 34.2467 222.204 34.5867 221.657 34.88C221.11 35.1733 220.537 35.32 219.937 35.32ZM231.947 35.32C231.134 35.32 230.407 35.12 229.767 34.72C229.141 34.3067 228.641 33.72 228.267 32.96C227.907 32.2 227.727 31.3067 227.727 30.28C227.727 29.1867 227.941 28.22 228.367 27.38C228.794 26.54 229.394 25.88 230.167 25.4C230.941 24.92 231.821 24.68 232.807 24.68C233.221 24.68 233.614 24.7333 233.987 24.84C234.374 24.9333 234.694 25.0467 234.947 25.18V22.9C234.947 22.7 234.954 22.48 234.967 22.24C234.981 21.9867 235.001 21.7267 235.027 21.46C234.787 21.4733 234.541 21.4867 234.287 21.5C234.034 21.5133 233.807 21.52 233.607 21.52V20.46C234.207 20.46 234.681 20.4333 235.027 20.38C235.387 20.3133 235.661 20.24 235.847 20.16C236.047 20.08 236.194 19.9933 236.287 19.9H237.027V32.52C237.027 32.72 237.021 32.9467 237.007 33.2C236.994 33.4533 236.974 33.72 236.947 34C237.187 33.9867 237.427 33.9733 237.667 33.96C237.907 33.9467 238.127 33.94 238.327 33.94V35H235.147C235.121 34.8133 235.094 34.64 235.067 34.48C235.054 34.32 235.041 34.16 235.027 34C234.627 34.4267 234.167 34.7533 233.647 34.98C233.127 35.2067 232.561 35.32 231.947 35.32ZM232.767 34.06C233.181 34.06 233.581 33.9467 233.967 33.72C234.367 33.4933 234.694 33.2067 234.947 32.86C234.947 32.6867 234.947 32.5067 234.947 32.32C234.947 32.1333 234.947 31.9333 234.947 31.72V26.28C234.694 26.0933 234.394 25.9533 234.047 25.86C233.714 25.7533 233.367 25.7 233.007 25.7C232.354 25.7 231.801 25.8933 231.347 26.28C230.907 26.6533 230.581 27.1667 230.367 27.82C230.154 28.4733 230.054 29.22 230.067 30.06C230.094 30.78 230.207 31.4467 230.407 32.06C230.607 32.6733 230.901 33.16 231.287 33.52C231.687 33.88 232.181 34.06 232.767 34.06ZM239.741 34.16C240.141 34.16 240.421 34.0667 240.581 33.88C240.741 33.6933 240.834 33.4333 240.861 33.1C240.901 32.7667 240.921 32.38 240.921 31.94V27.8C240.921 27.5733 240.928 27.3467 240.941 27.12C240.954 26.88 240.974 26.6267 241.001 26.36C240.774 26.3733 240.534 26.3867 240.281 26.4C240.028 26.4 239.794 26.4067 239.581 26.42V25.36C240.181 25.36 240.654 25.3333 241.001 25.28C241.361 25.2133 241.634 25.14 241.821 25.06C242.021 24.98 242.168 24.8933 242.261 24.8H243.021V32.52C243.021 32.76 243.014 33.0067 243.001 33.26C242.988 33.5 242.968 33.7467 242.941 34C243.154 33.9867 243.368 33.98 243.581 33.98C243.808 33.9667 244.014 33.9533 244.201 33.94V35H239.741V34.16ZM241.881 22.96C241.534 22.96 241.241 22.8333 241.001 22.58C240.761 22.3133 240.641 21.9933 240.641 21.62C240.641 21.2467 240.768 20.9333 241.021 20.68C241.274 20.4133 241.561 20.28 241.881 20.28C242.228 20.28 242.514 20.4133 242.741 20.68C242.981 20.9333 243.101 21.2467 243.101 21.62C243.101 21.9933 242.981 22.3133 242.741 22.58C242.514 22.8333 242.228 22.96 241.881 22.96ZM250.599 35.32C249.652 35.32 248.799 35.1067 248.039 34.68C247.279 34.2533 246.672 33.66 246.219 32.9C245.779 32.1267 245.559 31.24 245.559 30.24C245.559 29.16 245.779 28.2067 246.219 27.38C246.672 26.54 247.279 25.88 248.039 25.4C248.799 24.92 249.645 24.68 250.579 24.68C251.525 24.68 252.379 24.9 253.139 25.34C253.899 25.7667 254.499 26.3667 254.939 27.14C255.392 27.9 255.619 28.78 255.619 29.78C255.619 30.8333 255.399 31.78 254.959 32.62C254.519 33.46 253.919 34.12 253.159 34.6C252.412 35.08 251.559 35.32 250.599 35.32ZM250.739 34.32C251.379 34.3067 251.879 34.1067 252.239 33.72C252.612 33.3333 252.879 32.84 253.039 32.24C253.199 31.6267 253.279 30.9933 253.279 30.34C253.279 29.7667 253.225 29.2067 253.119 28.66C253.025 28.1 252.872 27.5933 252.659 27.14C252.445 26.6867 252.165 26.3267 251.819 26.06C251.472 25.78 251.052 25.6467 250.559 25.66C249.932 25.66 249.419 25.8533 249.019 26.24C248.632 26.6267 248.345 27.1267 248.159 27.74C247.985 28.34 247.899 28.98 247.899 29.66C247.899 30.4467 247.999 31.1933 248.199 31.9C248.399 32.6067 248.705 33.1867 249.119 33.64C249.545 34.0933 250.085 34.32 250.739 34.32Z" fill="white"/>
</svg>
