<svg width="44" height="28" viewBox="0 0 44 28" fill="none" xmlns="http://www.w3.org/2000/svg">
<path d="M8.80254 0.764282H19.5723C21.0757 0.764282 22.0108 1.98966 21.6601 3.49801L16.6459 25.0256C16.2921 26.5287 14.7869 27.7551 13.2825 27.7551H2.51369C1.01242 27.7551 0.0752786 26.5287 0.425986 25.0256L5.4422 3.49801C5.79291 1.98966 7.29733 0.764282 8.80254 0.764282Z" fill="#E21836"/>
<path d="M18.6756 0.762756H31.0606C32.5637 0.762756 31.8859 1.98813 31.5323 3.49649L26.519 25.024C26.1672 26.5271 26.277 27.7536 24.7707 27.7536H12.3857C10.8794 27.7536 9.94727 26.5271 10.3011 25.024L15.3142 3.49649C15.6702 1.98813 17.1714 0.762756 18.6756 0.762756Z" fill="#00447C"/>
<path d="M30.5695 0.762756H41.3394C42.8448 0.762756 43.7799 1.98813 43.4263 3.49649L38.4129 25.024C38.0591 26.5271 36.5528 27.7536 35.0476 27.7536H24.2828C22.7765 27.7536 21.8423 26.5271 22.1951 25.024L27.2092 3.49649C27.5599 1.98813 29.0633 0.762756 30.5695 0.762756Z" fill="#007B84"/>
<path d="M11.6147 7.66167C10.5072 7.67296 10.1801 7.66167 10.0756 7.63699C10.0354 7.82783 9.28809 11.2753 9.28599 11.2782C9.12507 11.9757 9.008 12.4729 8.6103 12.7939C8.38455 12.9806 8.12099 13.0706 7.81543 13.0706C7.32429 13.0706 7.03815 12.8267 6.99012 12.3642L6.98093 12.2054C6.98093 12.2054 7.13056 11.2711 7.13056 11.2659C7.13056 11.2659 7.91492 8.1242 8.05536 7.70892C8.06271 7.68529 8.06481 7.67296 8.06665 7.66167C6.53992 7.67506 6.26928 7.66167 6.25064 7.63699C6.2404 7.67086 6.2026 7.86563 6.2026 7.86563L5.4017 11.4066L5.33292 11.7069L5.19983 12.6892C5.19983 12.9806 5.25706 13.2184 5.37098 13.4195C5.73587 14.0571 6.7767 14.1526 7.3655 14.1526C8.12414 14.1526 8.83579 13.9915 9.3167 13.6972C10.1515 13.2039 10.3699 12.433 10.5647 11.7478L10.655 11.3963C10.655 11.3963 11.4629 8.13339 11.6002 7.70892C11.6055 7.68529 11.6076 7.67296 11.6147 7.66167ZM14.3638 10.2939C14.169 10.2939 13.8131 10.3412 13.4933 10.4979C13.3773 10.5575 13.2676 10.6262 13.1518 10.6948L13.2563 10.3175L13.1991 10.254C12.521 10.3913 12.3693 10.4097 11.743 10.4979L11.6905 10.5328C11.6177 11.1358 11.5532 11.5891 11.2836 12.7743C11.1809 13.2111 11.0744 13.6521 10.9675 14.0879L10.9964 14.1433C11.6382 14.1094 11.833 14.1094 12.3908 14.1186L12.436 14.0695C12.5069 13.7065 12.516 13.6214 12.673 12.8862C12.7468 12.5375 12.9006 11.7716 12.9765 11.4988C13.1159 11.4342 13.2534 11.3707 13.3847 11.3707C13.6973 11.3707 13.6593 11.6435 13.6472 11.7521C13.6338 11.9346 13.5199 12.5305 13.403 13.0421L13.3251 13.3723C13.2707 13.6162 13.2112 13.8532 13.1568 14.095L13.1804 14.1433C13.8131 14.1094 14.006 14.1094 14.5463 14.1186L14.6098 14.0695C14.7074 13.5025 14.736 13.3508 14.9093 12.5252L14.9965 12.1459C15.1658 11.4035 15.2508 11.0271 15.1227 10.7205C14.9873 10.3769 14.6623 10.2939 14.3638 10.2939ZM17.4349 11.0712C17.0987 11.1357 16.8842 11.1788 16.671 11.2066C16.4597 11.2405 16.2536 11.2712 15.9287 11.3163L15.9029 11.3397L15.8793 11.3583C15.8454 11.6004 15.8218 11.8096 15.7769 12.0556C15.7389 12.3099 15.6803 12.5989 15.585 13.0142C15.5113 13.3321 15.4732 13.4429 15.4312 13.5547C15.3903 13.6666 15.3451 13.7752 15.2622 14.0879L15.2816 14.1168L15.2979 14.1433C15.6016 14.1288 15.8003 14.1186 16.0045 14.1168C16.2085 14.1094 16.4198 14.1168 16.7469 14.1186L16.7755 14.0952L16.8062 14.0695C16.8535 13.7876 16.8606 13.7117 16.8894 13.5742C16.918 13.4266 16.9674 13.2224 17.0884 12.6769C17.1456 12.4207 17.2094 12.1653 17.2688 11.9038C17.3304 11.6434 17.395 11.387 17.4564 11.1308L17.4473 11.0998L17.4349 11.0712ZM17.4421 10.0232C17.1365 9.84285 16.6002 9.90008 16.2393 10.1492C15.8794 10.3933 15.8384 10.7398 16.1429 10.9225C16.4433 11.0979 16.9817 11.0457 17.3394 10.7944C17.6986 10.5451 17.7434 10.2017 17.4421 10.0232ZM19.29 14.1998C19.9082 14.1998 20.5419 14.0294 21.0189 13.5238C21.3858 13.1138 21.5541 12.5037 21.6124 12.2525C21.8022 11.4199 21.6544 11.0311 21.4688 10.7943C21.1869 10.4334 20.6886 10.3176 20.1718 10.3176C19.8609 10.3176 19.1207 10.3483 18.5424 10.8815C18.1271 11.266 17.9352 11.7879 17.8194 12.2882C17.7026 12.798 17.5682 13.7157 18.4122 14.0572C18.6726 14.1691 19.048 14.1998 19.29 14.1998ZM19.2417 12.3263C19.3842 11.6957 19.5525 11.1665 19.982 11.1665C20.3185 11.1665 20.3429 11.5603 20.1933 12.1929C20.1665 12.3334 20.0436 12.8555 19.8775 13.0778C19.7615 13.2419 19.6242 13.3414 19.4724 13.3414C19.4273 13.3414 19.1587 13.3414 19.1545 12.9426C19.1524 12.7458 19.1926 12.5447 19.2417 12.3263ZM23.1578 14.1187L23.2061 14.0696C23.2746 13.7066 23.2859 13.6213 23.4376 12.8862C23.5134 12.5376 23.6704 11.7716 23.7442 11.4989C23.8838 11.4341 24.019 11.3705 24.1545 11.3705C24.465 11.3705 24.4272 11.6433 24.4149 11.7519C24.4036 11.9347 24.2897 12.5303 24.1708 13.0419L24.097 13.3721C24.0406 13.6163 23.9791 13.853 23.9248 14.0951L23.9484 14.1434C24.5832 14.1095 24.7687 14.1095 25.3121 14.1187L25.3778 14.0696C25.473 13.5023 25.4988 13.3506 25.6773 12.5253L25.7623 12.1457C25.9324 11.4033 26.0185 11.0272 25.8925 10.7206C25.7531 10.3769 25.4261 10.294 25.1318 10.294C24.9367 10.294 24.579 10.341 24.2611 10.498C24.1474 10.5575 24.0335 10.6261 23.9216 10.6948L24.019 10.3176L23.9668 10.2538C23.289 10.3914 23.1341 10.4098 22.5086 10.498L22.4605 10.5329C22.3847 11.1358 22.323 11.5889 22.0534 12.7744C21.9507 13.2112 21.8442 13.6522 21.7376 14.088L21.7662 14.1434C22.4091 14.1095 22.601 14.1095 23.1578 14.1187ZM27.8213 14.1432C27.8612 13.9485 28.0982 12.794 28.1003 12.794C28.1003 12.794 28.3022 11.9469 28.3145 11.9161C28.3145 11.9161 28.3781 11.8279 28.4416 11.793H28.535C29.4168 11.793 30.4125 11.793 31.1929 11.2189C31.724 10.8252 32.087 10.2437 32.249 9.53706C32.291 9.36381 32.3219 9.15774 32.3219 8.95167C32.3219 8.68103 32.2676 8.41327 32.1106 8.20406C31.7127 7.64728 30.9202 7.63704 30.0053 7.63284C30.0024 7.63284 29.5544 7.63704 29.5544 7.63704C28.3833 7.65148 27.9137 7.64728 27.7208 7.62366C27.7045 7.70897 27.6738 7.8607 27.6738 7.8607C27.6738 7.8607 27.2543 9.80481 27.2543 9.80796C27.2543 9.80796 26.2505 13.9414 26.2032 14.1362C27.2257 14.1238 27.6449 14.1238 27.8213 14.1432ZM28.5986 10.6897C28.5986 10.6897 29.0446 8.74954 29.0425 8.75689L29.0569 8.6574L29.0632 8.58154L29.2414 8.59991C29.2414 8.59991 30.1613 8.67893 30.1828 8.68103C30.5458 8.82147 30.6955 9.18346 30.591 9.65597C30.4957 10.0878 30.2156 10.4508 29.8557 10.6262C29.5593 10.7748 29.1963 10.7871 28.8222 10.7871H28.5802L28.5986 10.6897ZM31.3755 12.3622C31.2576 12.8647 31.1221 13.7824 31.9619 14.1095C32.2297 14.2234 32.4696 14.2572 32.7134 14.2449C32.971 14.231 33.2096 14.1018 33.4306 13.916C33.4107 13.9924 33.3907 14.0688 33.3708 14.1454L33.4088 14.1945C34.0128 14.169 34.2003 14.169 34.8547 14.174L34.914 14.1289C35.0096 13.5671 35.0996 13.0216 35.348 11.9469C35.469 11.4322 35.5897 10.9224 35.7139 10.4097L35.6945 10.3533C35.0188 10.4785 34.8382 10.5053 34.1882 10.5974L34.1389 10.6376C34.1323 10.6898 34.1255 10.7399 34.1192 10.7901C34.0181 10.6268 33.8716 10.4874 33.6456 10.4005C33.3566 10.2869 32.6777 10.4333 32.0942 10.9646C31.6842 11.344 31.4873 11.8637 31.3755 12.3622ZM32.7946 12.3929C32.9392 11.7737 33.1054 11.2497 33.5359 11.2497C33.8081 11.2497 33.9514 11.5009 33.9223 11.9294C33.8992 12.0362 33.8742 12.1488 33.8446 12.2761C33.8015 12.4601 33.7548 12.6426 33.7094 12.8253C33.6632 12.9502 33.6094 13.0681 33.5503 13.1466C33.4395 13.3036 33.176 13.401 33.0243 13.401C32.9812 13.401 32.7155 13.401 32.7064 13.0093C32.7043 12.8143 32.7444 12.6134 32.7946 12.3929ZM40.2052 10.3483L40.153 10.2887C39.4844 10.4241 39.3634 10.4456 38.7491 10.5286L38.704 10.5737C38.7019 10.5811 38.7 10.5924 38.6969 10.6026L38.6948 10.5924C38.2375 11.6474 38.2509 11.4198 37.8786 12.2504C37.8765 12.2126 37.8765 12.1889 37.8744 12.1488L37.7812 10.3483L37.7227 10.2887C37.0223 10.4241 37.0058 10.4456 36.359 10.5286L36.3086 10.5737C36.3015 10.5953 36.3015 10.6189 36.2973 10.6446L36.3015 10.6538C36.3824 11.067 36.3629 10.9749 36.444 11.6269C36.4818 11.9469 36.5322 12.2687 36.57 12.5848C36.6338 13.1137 36.6695 13.3742 36.7475 14.1814C36.3107 14.9022 36.2073 15.1749 35.7867 15.8076L35.7896 15.8139L35.4935 16.2822C35.4596 16.3315 35.4289 16.3654 35.3859 16.3798C35.3386 16.4032 35.2772 16.4074 35.1919 16.4074H35.0278L34.784 17.2185L35.6206 17.233C36.1117 17.2309 36.4204 17.0012 36.5866 16.6925L37.1126 15.791H37.1042L37.1596 15.7275C37.5135 14.9657 40.2052 10.3483 40.2052 10.3483ZM31.3754 21.0014H31.0205L32.3341 16.6567H32.7699L32.9082 16.2091L32.9216 16.7068C32.9053 17.0144 33.1473 17.2872 33.7831 17.242H34.5184L34.7715 16.4054H34.4948C34.3357 16.4054 34.2619 16.3653 34.2711 16.2792L34.2577 15.7728H32.8961V15.7754C32.4559 15.7846 31.1413 15.8177 30.8751 15.8886C30.553 15.9715 30.2136 16.2156 30.2136 16.2156L30.3469 15.7675H29.0733L28.8079 16.6567L27.4767 21.0678H27.2184L26.9651 21.8984H29.5019L29.4169 22.1753H30.6669L30.7499 21.8984H31.1006L31.3754 21.0014ZM30.3346 17.5395C30.1306 17.5959 29.751 17.7671 29.751 17.7671L30.0886 16.6567H31.1006L30.8565 17.4657C30.8565 17.4657 30.5438 17.4841 30.3346 17.5395ZM30.354 19.1258C30.354 19.1258 30.0361 19.1657 29.8269 19.2129C29.6208 19.2754 29.2344 19.4723 29.2344 19.4723L29.583 18.3167H30.6003L30.354 19.1258ZM29.787 21.0116H28.7719L29.0662 20.0364H30.0781L29.787 21.0116ZM32.2316 18.3167H33.6948L33.4846 18.9977H32.0019L31.7793 19.7421H33.0766L32.0943 21.1253C32.0256 21.2269 31.9639 21.2628 31.8953 21.2914C31.8266 21.3264 31.7363 21.3673 31.6318 21.3673H31.2719L31.0246 22.1827H31.966C32.4553 22.1827 32.7443 21.9601 32.9577 21.6679L33.6313 20.746L33.7759 21.6821C33.8067 21.8574 33.9327 21.9601 34.018 22C34.1122 22.0472 34.2096 22.1283 34.3472 22.1404C34.4947 22.1467 34.6013 22.1517 34.6721 22.1517H35.1347L35.4124 21.2392H35.23C35.1252 21.2392 34.9449 21.2216 34.9142 21.1888C34.8834 21.1489 34.8834 21.0875 34.8669 20.994L34.7202 20.0558H34.1193L34.3829 19.7421H35.8626L36.0902 18.9977H34.7202L34.9336 18.3167H36.2994L36.5527 17.477H32.4807L32.2316 18.3167ZM19.8733 21.2012L20.2149 20.0651H21.6185L21.8749 19.2201H20.47L20.6845 18.5208H22.0574L22.3117 17.7026H18.8766L18.6275 18.5208H19.4079L19.1997 19.2201H18.4172L18.1579 20.0795H18.938L18.4828 21.5826C18.4214 21.7816 18.5117 21.8575 18.5689 21.9499C18.6275 22.0399 18.6868 22.0995 18.8202 22.1334C18.9577 22.1641 19.052 22.1825 19.1801 22.1825H20.7624L21.0444 21.2464L20.343 21.3427C20.2075 21.3427 19.8324 21.3264 19.8733 21.2012ZM20.0343 15.7624L19.6786 16.4053C19.6025 16.5457 19.534 16.6329 19.4723 16.6731C19.418 16.7069 19.3103 16.7211 19.1544 16.7211H18.9688L18.7208 17.5435H19.3371C19.6335 17.5435 19.8611 17.4348 19.9698 17.3805C20.0866 17.318 20.1173 17.3537 20.2076 17.2666L20.4157 17.0862H22.3404L22.5959 16.2299H21.187L21.433 15.7624H20.0343ZM22.8758 21.2177C22.843 21.1705 22.8666 21.0873 22.9167 20.914L23.4428 19.1728H25.3142C25.587 19.1689 25.7838 19.1657 25.9119 19.1565C26.0495 19.1421 26.1991 19.093 26.3621 19.0048C26.5304 18.9124 26.6165 18.815 26.6892 18.7032C26.7703 18.5916 26.9005 18.3475 27.0124 17.9711L27.6736 15.7676L25.7316 15.7789C25.7316 15.7789 25.1336 15.8671 24.8703 15.9645C24.6047 16.0732 24.2251 16.3766 24.2251 16.3766L24.4004 15.7726H23.2008L21.5213 21.3427C21.4617 21.559 21.4218 21.716 21.4126 21.8102C21.4094 21.9118 21.5407 22.0123 21.6257 22.0882C21.7263 22.1641 21.8749 22.1517 22.0174 22.1641C22.1673 22.1754 22.3804 22.1824 22.6747 22.1824H23.5966L23.8796 21.2269L23.0543 21.3049C22.9661 21.3049 22.9023 21.2576 22.8758 21.2177ZM23.7822 17.9968H25.7479L25.6229 18.3885C25.6053 18.3976 25.5633 18.369 25.3633 18.3927H23.6612L23.7822 17.9968ZM24.176 16.6832H26.1582L26.0156 17.1549C26.0156 17.1549 25.0814 17.1458 24.9317 17.1733C24.2734 17.2872 23.8888 17.639 23.8888 17.639L24.176 16.6832ZM25.6669 19.7C25.6506 19.7585 25.6249 19.7943 25.5889 19.821C25.549 19.8468 25.4845 19.8559 25.3881 19.8559H25.108L25.1246 19.379H23.9596L23.9123 21.7108C23.9105 21.8791 23.9268 21.9765 24.0499 22.0544C24.173 22.1518 24.5523 22.1641 25.0629 22.1641H25.7929L26.0565 21.2913L25.4209 21.3262L25.2096 21.3386C25.1807 21.3262 25.1532 21.3149 25.1225 21.2842C25.0957 21.2577 25.0505 21.274 25.0579 21.1057L25.0629 20.508L25.7294 20.4804C26.0893 20.4804 26.2431 20.3634 26.3744 20.2518C26.4996 20.145 26.5405 20.0221 26.5878 19.8559L26.6996 19.3267H25.7837L25.6669 19.7Z" fill="#FEFEFE"/>
</svg>
